<?xml version="1.0" encoding="UTF-8"?>
<svg id="Capa_2" data-name="Capa 2" xmlns="http://www.w3.org/2000/svg" viewBox="0 0 220.51 178.69">
  <defs>
    <style>
      .cls-1 {
        fill: #e6501b;
        fill-rule: evenodd;
      }

      .cls-2 {
        fill: #0b848d;
      }
    </style>
  </defs>
  <g id="LOGOS">
    <g>
      <path class="cls-1" d="M13.8,170.68s4.1,4.41-.08,7.22c-4.18,2.81-7.6-2.73-7.6-2.73,0,0-10.48-14.05-4.03-38.67,0,0,2.05-12.46,16.48-24.46,14.43-12,25.15-18.99,28.41-23.32,3.27-4.33,5.19-8.16,3.87-10.79-1.31-2.62-12.08-20.59-12.61-21.19s-4.48-11.77.84-22.18c5.32-10.41,21.12-25.75,52.19-29.48,0,0,1.9-.84,3.27,1.06,1.37,1.9,3.08.74,7.54,9.6,0,0,2.18,4.07-4.2,5.52-6.38,1.44-23.78,2.13-43.99,19.22,0,0-12.61,11.17-2.05,21.95,10.56,10.79,15.19,20.13,15.57,23.02.38,2.89-.1,8.6-7.34,15.24-7.24,6.64-33.39,26.22-39.12,34.66-5.73,8.44-13.93,21.51-7.17,35.34Z"/>
      <path class="cls-1" d="M101.84,3.3S108.42-.18,110.18,0c1.75.19,5.37-.8,8.58,5.76,3.21,6.55.08,15.88-.33,17.71-.41,1.84-1.59,7.27-6.83,4.14,0,0-2.68-2.34-4.27-5.8-1.59-3.46-1.65-3.49-1.1-4.89.55-1.4-3.73-8.88-4.85-8.83,0,0-3.48-2.74.47-4.8Z"/>
      <path class="cls-2" d="M102.31,58.81h-9.59c-.09.51-.2.99-.36,1.41h0c-.13.34-.27.65-.42.95-.07.13-.15.26-.22.39-.03.05-.07.1-.1.16-.42.65-.85,1.11-1.13,1.38-1.23,1.11-2.86,1.68-4.92,1.68-2.4,0-4.33-.75-5.77-2.24-1.45-1.5-2.27-3.56-2.45-6.18h25.41v-1.63c0-5.98-1.68-10.76-5.03-14.34-3.35-3.53-7.68-5.3-12.98-5.3s-9.44,1.72-12.57,5.16c-3.13,3.44-4.69,7.81-4.69,13.11s1.63,10.06,4.89,13.59c3.26,3.53,7.72,5.3,13.39,5.3,4.03,0,7.43-.96,10.19-2.89,2.49-1.73,4.33-4.2,5.53-7.39,0,0,.01-.02.02-.03.1-.24.19-.52.28-.81.03-.08.06-.16.08-.24h-.02c.2-.72.35-1.51.45-2.09ZM79.73,44.12c1.4-1.36,3.19-2.04,5.37-2.04s3.94.68,5.3,2.04,2.17,3.26,2.45,5.71h-15.56c.23-2.35,1.04-4.26,2.45-5.71Z"/>
      <rect class="cls-2" x="107.94" y="35.97" width="9.58" height="35.06"/>
      <path class="cls-2" d="M167.82,35.08c-4.82,0-8.42,2.11-10.78,6.32-1.8-4.21-5.3-6.32-10.5-6.32-4.35,0-7.66,1.79-9.93,5.37l-.14-4.48h-9.79v35.06h10v-18.75c0-2.58.6-4.65,1.81-6.22,1.21-1.56,2.78-2.34,4.72-2.34,1.61,0,2.83.53,3.65,1.6.83,1.06,1.24,2.46,1.24,4.18v21.54h10v-18.75c0-2.58.6-4.65,1.81-6.22,1.21-1.56,2.78-2.34,4.72-2.34,1.61,0,2.83.53,3.65,1.6.83,1.06,1.24,2.46,1.24,4.18v21.54h10v-23.44c0-3.8-1.04-6.84-3.12-9.1-2.08-2.26-4.94-3.4-8.58-3.4Z"/>
      <path class="cls-2" d="M203.53,64.71c-2.58,0-4.59-.96-6.02-2.89-1.43-1.92-2.15-4.65-2.15-8.19s.72-6.26,2.15-8.19c1.43-1.92,3.44-2.89,6.02-2.89,3.63,0,5.99,1.88,7.09,5.64h9.89c-.76-4.17-2.63-7.39-5.59-9.68-2.96-2.29-6.81-3.43-11.54-3.43-5.4,0-9.72,1.68-12.97,5.03-3.2,3.31-4.8,7.81-4.8,13.52s1.6,10.21,4.8,13.52c3.25,3.35,7.57,5.03,12.97,5.03,4.63,0,8.46-1.17,11.47-3.5,3.01-2.33,4.9-5.58,5.66-9.75h-9.89c-1.15,3.85-3.51,5.77-7.09,5.77Z"/>
    </g>
  </g>
</svg>