<svg xmlns="http://www.w3.org/2000/svg" viewBox="0 0 542.02 85.02"><title>logo-SESPO-2020-b</title><g id="Capa_2" data-name="Capa 2"><g id="Capa_1-2" data-name="Capa 1"><path d="M183.79,63q5,.84,10.05,2c8.85-.57,13.67-6.29,13.67-15.93V16c0-10.17-5.36-16-15.17-16s-15.17,5.81-15.17,16V49C177.17,55.68,179.47,60.45,183.79,63Zm3.37-47.62c0-4.54,2-6.27,5.18-6.27s5.18,1.73,5.18,6.27V49.68c0,4.54-2,6.27-5.18,6.27s-5.18-1.73-5.18-6.27Z" style="fill:#78a2d7"/><polygon points="103.16 55.22 85.9 55.22 85.9 36.6 99.61 36.6 99.61 27.52 85.9 27.52 85.9 9.81 103.16 9.81 103.16 0.73 75.91 0.73 75.91 64.3 103.16 64.3 103.16 55.22" style="fill:#78a2d7"/><path d="M153.29,60.53V40.42H158c10,0,14.9-5.54,14.9-15.72V16.44C172.91,6.27,168,.73,158,.73H143.3V60.78C146.6,60.63,149.93,60.53,153.29,60.53Zm0-50.72H158c3.18,0,4.9,1.45,4.9,6v9.54c0,4.54-1.72,6-4.9,6h-4.72Z" style="fill:#78a2d7"/><path d="M55.3,65c9.8,0,14.89-5.82,14.89-16,0-18.16-19.53-20.61-19.53-33.69,0-4.54,1.82-6.27,5-6.27s5,1.73,5,6.27V18H70.1V16c0-10.17-5-16-14.71-16S40.67,5.81,40.67,16c0,18.17,19.53,20.62,19.53,33.7,0,4.54-2,6.17-5.18,6.17s-5.17-1.63-5.17-6.17V45.14H40.4V49C40.4,59.21,45.49,65,55.3,65Z" style="fill:#78a2d7"/><path d="M115.34,63.57c5.84-.83,11.77-1.56,17.82-2.09,2.92-2.73,4.42-6.94,4.42-12.44,0-18.16-19.53-20.61-19.53-33.69,0-4.54,1.82-6.27,5-6.27s5,1.73,5,6.27V18h9.45V16c0-10.17-5-16-14.72-16s-14.71,5.81-14.71,16c0,18.17,19.53,20.62,19.53,33.7,0,4.54-2,6.17-5.18,6.17s-5.18-1.63-5.18-6.17V45.14h-9.44V49C107.79,56.26,110.36,61.26,115.34,63.57Z" style="fill:#78a2d7"/><rect x="4.51" y="44.92" width="7.41" height="19.38" style="fill:#3b5da4"/><rect x="16.12" y="44.92" width="7.41" height="19.38" style="fill:#78a2d7"/><rect x="27.73" y="44.92" width="7.41" height="19.38" style="fill:#5aa076"/><path d="M43,85C27.49,85,13.16,82,0,73L4.49,66.4C27.7,82.28,56.59,77.19,90,71.3c37.15-6.55,79.26-14,126.16,4.07l-2.86,7.43c-44.84-17.25-85.79-10-121.92-3.67C74.14,82.18,58,85,43,85Z" style="fill:#b5c934"/><path d="M228.49,31a2.63,2.63,0,0,0-.57-.46,5.05,5.05,0,0,0-.87-.46,6.29,6.29,0,0,0-1.11-.36,5.88,5.88,0,0,0-1.29-.13,3.2,3.2,0,0,0-2,.51,1.7,1.7,0,0,0-.66,1.43,1.5,1.5,0,0,0,.21.83,1.73,1.73,0,0,0,.65.56,4.68,4.68,0,0,0,1.08.42c.43.12.93.26,1.5.4s1.31.37,1.88.57a5.78,5.78,0,0,1,1.45.73,3.36,3.36,0,0,1,.93,1.09,3.52,3.52,0,0,1,.33,1.61,3.93,3.93,0,0,1-.41,1.86,3.59,3.59,0,0,1-1.11,1.24,4.78,4.78,0,0,1-1.62.71,8.14,8.14,0,0,1-1.95.23,10,10,0,0,1-3.08-.48,8.75,8.75,0,0,1-2.69-1.41l1-1.88a4.65,4.65,0,0,0,.73.57,6.36,6.36,0,0,0,1.11.58,8.52,8.52,0,0,0,1.4.45,6.83,6.83,0,0,0,1.58.19,3.56,3.56,0,0,0,2-.46,1.51,1.51,0,0,0,.7-1.35,1.48,1.48,0,0,0-.26-.88,2.22,2.22,0,0,0-.74-.62,7,7,0,0,0-1.2-.47l-1.6-.44a16.58,16.58,0,0,1-1.82-.57,4.74,4.74,0,0,1-1.28-.74,2.78,2.78,0,0,1-.77-1,3.27,3.27,0,0,1-.27-1.4,4.18,4.18,0,0,1,.38-1.81,3.84,3.84,0,0,1,1.06-1.33,4.84,4.84,0,0,1,1.6-.82,7,7,0,0,1,2-.27,7.33,7.33,0,0,1,2.63.45,8.48,8.48,0,0,1,2.09,1.12Z" style="fill:#78a2d7"/><path d="M236.6,41.82a5.27,5.27,0,0,1-2.18-.43,5,5,0,0,1-1.66-1.15,5.31,5.31,0,0,1-1.06-1.7,5.73,5.73,0,0,1,0-4,5.06,5.06,0,0,1,1.07-1.7,5.33,5.33,0,0,1,7.66,0,4.91,4.91,0,0,1,1.07,1.7,5.73,5.73,0,0,1,0,4,5,5,0,0,1-1.07,1.7,5.14,5.14,0,0,1-1.66,1.15A5.26,5.26,0,0,1,236.6,41.82Zm-3-5.29a4.08,4.08,0,0,0,.23,1.38,3.35,3.35,0,0,0,.65,1.08,3,3,0,0,0,1,.73,2.84,2.84,0,0,0,1.2.26,2.89,2.89,0,0,0,1.21-.26,3,3,0,0,0,1-.74,3.48,3.48,0,0,0,.64-1.09,4,4,0,0,0,0-2.74,3.58,3.58,0,0,0-.64-1.11,3.14,3.14,0,0,0-1-.73,2.74,2.74,0,0,0-1.21-.26,2.65,2.65,0,0,0-1.18.27,3.06,3.06,0,0,0-1,.74,3.63,3.63,0,0,0-.66,1.11A3.85,3.85,0,0,0,233.55,36.53Z" style="fill:#78a2d7"/><path d="M243.11,36.49a5.54,5.54,0,0,1,.37-2,5,5,0,0,1,1.07-1.69,5.23,5.23,0,0,1,1.67-1.15,5.57,5.57,0,0,1,2.2-.42,5.18,5.18,0,0,1,2.73.7,4.44,4.44,0,0,1,1.72,1.85l-2.1.67a2.69,2.69,0,0,0-1-1,2.74,2.74,0,0,0-1.39-.36,2.91,2.91,0,0,0-1.21.25,3,3,0,0,0-1,.72,3.33,3.33,0,0,0-.64,1.08,3.86,3.86,0,0,0-.24,1.39,3.73,3.73,0,0,0,.25,1.39,3.47,3.47,0,0,0,.66,1.1,3.06,3.06,0,0,0,1,.74,2.83,2.83,0,0,0,1.19.26,2.63,2.63,0,0,0,.78-.11,2.88,2.88,0,0,0,.72-.3,3.14,3.14,0,0,0,.57-.45,1.74,1.74,0,0,0,.36-.55l2.11.63a4.17,4.17,0,0,1-1.7,1.89,5.78,5.78,0,0,1-5,.3,5,5,0,0,1-1.67-1.16,5.13,5.13,0,0,1-1.08-1.7A5.56,5.56,0,0,1,243.11,36.49Z" style="fill:#78a2d7"/><path d="M254.69,29.69V27.32h2.15v2.37Zm0,11.94V31.38h2.15V41.63Z" style="fill:#78a2d7"/><path d="M264.05,41.82a5.45,5.45,0,0,1-2.17-.42,5.1,5.1,0,0,1-1.68-1.14,5.22,5.22,0,0,1-1.07-1.69,5.53,5.53,0,0,1,0-4.08,5.21,5.21,0,0,1,1.07-1.71,5.15,5.15,0,0,1,1.68-1.16,5.48,5.48,0,0,1,2.19-.42,5.42,5.42,0,0,1,2.17.43,5.15,5.15,0,0,1,1.65,1.15,4.83,4.83,0,0,1,1.05,1.67,5.51,5.51,0,0,1,.36,2,3.24,3.24,0,0,1,0,.45,2.66,2.66,0,0,1,0,.34H261a3.19,3.19,0,0,0,.32,1.23,3.16,3.16,0,0,0,.68.95,2.88,2.88,0,0,0,1,.62,3.11,3.11,0,0,0,1.13.22,3.48,3.48,0,0,0,.85-.11,3,3,0,0,0,.78-.32,2.68,2.68,0,0,0,.62-.49,2.49,2.49,0,0,0,.44-.65l1.84.53a4.31,4.31,0,0,1-1.76,1.89A5.4,5.4,0,0,1,264.05,41.82Zm3.12-6.09a3.45,3.45,0,0,0-.33-1.2A2.89,2.89,0,0,0,265.21,33a3,3,0,0,0-1.16-.22,2.93,2.93,0,0,0-1.14.22,2.92,2.92,0,0,0-1.62,1.52,3.66,3.66,0,0,0-.31,1.2Z" style="fill:#78a2d7"/><path d="M275.28,41.82a4.49,4.49,0,0,1-1.95-.42,4.83,4.83,0,0,1-1.54-1.14,5.43,5.43,0,0,1-1-1.69,5.83,5.83,0,0,1-.36-2.06,6.06,6.06,0,0,1,.34-2.06,5.45,5.45,0,0,1,.95-1.69,4.65,4.65,0,0,1,1.46-1.14A4.15,4.15,0,0,1,275,31.2a4,4,0,0,1,2.14.59,4.14,4.14,0,0,1,1.47,1.53v-6h2.15V39.08c0,.44.2.68.62.7v1.85c-.22,0-.42.06-.59.08h-.47A1.32,1.32,0,0,1,279,40.61l0-.84a4,4,0,0,1-1.56,1.52A4.31,4.31,0,0,1,275.28,41.82Zm.55-1.84a2.5,2.5,0,0,0,.86-.16,3,3,0,0,0,.84-.43,3.5,3.5,0,0,0,.69-.64,2.39,2.39,0,0,0,.41-.81V35.26a3.25,3.25,0,0,0-.49-.87,3.72,3.72,0,0,0-.72-.71,3.22,3.22,0,0,0-.85-.47,2.61,2.61,0,0,0-.9-.17,2.56,2.56,0,0,0-1.24.3,2.92,2.92,0,0,0-1,.78,3.45,3.45,0,0,0-.62,1.13,4.13,4.13,0,0,0-.22,1.3,3.66,3.66,0,0,0,.25,1.33,3.31,3.31,0,0,0,.66,1.09,3.38,3.38,0,0,0,1,.74A3.06,3.06,0,0,0,275.83,40Z" style="fill:#78a2d7"/><path d="M286.33,41.82a3.85,3.85,0,0,1-1.38-.24,3.4,3.4,0,0,1-1.1-.68,3.05,3.05,0,0,1-.72-1,3,3,0,0,1-.27-1.27,2.84,2.84,0,0,1,.31-1.31,2.92,2.92,0,0,1,.9-1,4.27,4.27,0,0,1,1.37-.67,6,6,0,0,1,1.75-.23,8.54,8.54,0,0,1,1.43.12,7.2,7.2,0,0,1,1.28.35v-.71a2.36,2.36,0,0,0-.65-1.77,2.52,2.52,0,0,0-1.86-.64,4.55,4.55,0,0,0-1.62.3,8.83,8.83,0,0,0-1.64.88l-.66-1.38a7.32,7.32,0,0,1,4.11-1.33,4.72,4.72,0,0,1,3.3,1.08,4,4,0,0,1,1.17,3.1v3.7a.82.82,0,0,0,.14.53.66.66,0,0,0,.47.17v1.85a4.34,4.34,0,0,1-.58.07,4.19,4.19,0,0,1-.48,0,1.46,1.46,0,0,1-1-.33,1.25,1.25,0,0,1-.4-.78l-.06-.65a4.56,4.56,0,0,1-1.7,1.38A5,5,0,0,1,286.33,41.82Zm.59-1.58A3.9,3.9,0,0,0,288.4,40a2.54,2.54,0,0,0,1.08-.79,1,1,0,0,0,.42-.75V37.06a7.19,7.19,0,0,0-1.17-.33,6.28,6.28,0,0,0-1.21-.12,3.32,3.32,0,0,0-1.89.5,1.52,1.52,0,0,0-.73,1.32,1.69,1.69,0,0,0,.57,1.29A2.09,2.09,0,0,0,286.92,40.24Z" style="fill:#78a2d7"/><path d="M298.93,41.82A4.49,4.49,0,0,1,297,41.4a4.61,4.61,0,0,1-1.54-1.15,5.27,5.27,0,0,1-1-1.68,5.83,5.83,0,0,1-.36-2.06,6.16,6.16,0,0,1,.34-2.07,5.52,5.52,0,0,1,.95-1.68,4.51,4.51,0,0,1,1.46-1.14,4.15,4.15,0,0,1,1.85-.42,4,4,0,0,1,2.14.59,4.14,4.14,0,0,1,1.47,1.53v-6h2.15V39.08a.61.61,0,0,0,.63.7v1.85a4.91,4.91,0,0,1-.59.07,3.86,3.86,0,0,1-.47,0,1.31,1.31,0,0,1-1.37-1.11l0-.85A3.91,3.91,0,0,1,301,41.29,4.25,4.25,0,0,1,298.93,41.82Zm.55-1.84a2.5,2.5,0,0,0,.86-.16,3,3,0,0,0,.84-.43,3.5,3.5,0,0,0,.69-.64,2.39,2.39,0,0,0,.41-.81V35.26a3.1,3.1,0,0,0-.49-.87,3.72,3.72,0,0,0-.72-.71,3.22,3.22,0,0,0-.85-.47,2.63,2.63,0,0,0-2.15.13,3,3,0,0,0-.95.78,3.45,3.45,0,0,0-.62,1.13,3.86,3.86,0,0,0-.22,1.3,3.46,3.46,0,0,0,.25,1.33,3.42,3.42,0,0,0,.66,1.09,3.26,3.26,0,0,0,1,.74A3,3,0,0,0,299.48,40Z" style="fill:#78a2d7"/><path d="M321.87,39.69v1.94h-9.54V27.71h9.36v1.94h-7.17v4h6.21v1.82h-6.21v4.26Z" style="fill:#78a2d7"/><path d="M327.69,41.82a7.64,7.64,0,0,1-1.26-.1,8.84,8.84,0,0,1-1.26-.28A7.46,7.46,0,0,1,324,41a5.2,5.2,0,0,1-1-.6l.9-1.45a6.46,6.46,0,0,0,3.74,1.31,2.8,2.8,0,0,0,1.55-.37,1.19,1.19,0,0,0,.57-1.06,1,1,0,0,0-.64-1,11.08,11.08,0,0,0-2-.63c-.64-.16-1.19-.32-1.64-.48a5.08,5.08,0,0,1-1.12-.55,1.82,1.82,0,0,1-.63-.73,2.37,2.37,0,0,1-.19-1,3,3,0,0,1,.31-1.39,3.13,3.13,0,0,1,.85-1,3.74,3.74,0,0,1,1.28-.63,5.32,5.32,0,0,1,1.57-.22,6.79,6.79,0,0,1,2.16.35,7.11,7.11,0,0,1,1.86,1l-.92,1.32a5.18,5.18,0,0,0-3.14-1.1,2.65,2.65,0,0,0-1.39.34,1.17,1.17,0,0,0-.56,1.09,1.07,1.07,0,0,0,.11.53,1,1,0,0,0,.38.37,3.14,3.14,0,0,0,.7.29c.29.08.64.18,1.06.28.7.17,1.31.34,1.82.51a4.93,4.93,0,0,1,1.26.6,2.15,2.15,0,0,1,.74.8,2.39,2.39,0,0,1,.23,1.11,2.83,2.83,0,0,1-.29,1.31,3,3,0,0,1-.83,1,4.06,4.06,0,0,1-1.32.64A6.06,6.06,0,0,1,327.69,41.82Z" style="fill:#78a2d7"/><path d="M339.47,41.82a3.9,3.9,0,0,1-2.17-.59,4.57,4.57,0,0,1-1.5-1.53v6.1h-2.15V31.38h1.9v1.84a4.55,4.55,0,0,1,1.52-1.47,4.11,4.11,0,0,1,2.12-.55,4.29,4.29,0,0,1,1.92.43,4.85,4.85,0,0,1,1.53,1.16,5.27,5.27,0,0,1,1,1.68,5.73,5.73,0,0,1,.36,2,6.45,6.45,0,0,1-.33,2.09,5.19,5.19,0,0,1-.94,1.68,4.66,4.66,0,0,1-1.44,1.14A4,4,0,0,1,339.47,41.82ZM338.78,40a2.69,2.69,0,0,0,1.23-.29,3,3,0,0,0,1-.79,3.59,3.59,0,0,0,.62-1.12,3.7,3.7,0,0,0,0-2.62,3.61,3.61,0,0,0-.67-1.1,3.26,3.26,0,0,0-1-.74,2.87,2.87,0,0,0-1.26-.28,2.76,2.76,0,0,0-.86.16,3.58,3.58,0,0,0-.85.43,3.29,3.29,0,0,0-.7.64,2.21,2.21,0,0,0-.41.79v2.69a4.11,4.11,0,0,0,.51.88,3.36,3.36,0,0,0,.71.7,3.17,3.17,0,0,0,.84.47A2.47,2.47,0,0,0,338.78,40Z" style="fill:#78a2d7"/><path d="M348.67,41.82a3.93,3.93,0,0,1-1.38-.24,3.36,3.36,0,0,1-1.09-.68,3.23,3.23,0,0,1-.73-1,3,3,0,0,1-.26-1.27,2.76,2.76,0,0,1,.31-1.32,3.05,3.05,0,0,1,.89-1,4.38,4.38,0,0,1,1.37-.67,6.09,6.09,0,0,1,1.76-.24,8.54,8.54,0,0,1,1.43.13,8,8,0,0,1,1.27.34v-.7a2.36,2.36,0,0,0-.65-1.77,2.52,2.52,0,0,0-1.86-.64,4.46,4.46,0,0,0-1.61.3,9,9,0,0,0-1.64.87l-.67-1.37a7.25,7.25,0,0,1,4.12-1.33,4.68,4.68,0,0,1,3.29,1.08,4,4,0,0,1,1.18,3.09v3.71a.83.83,0,0,0,.13.53.66.66,0,0,0,.47.17v1.84a4.46,4.46,0,0,1-.58.08,4,4,0,0,1-.48,0,1.48,1.48,0,0,1-.95-.33,1.34,1.34,0,0,1-.4-.78l-.06-.65a4.52,4.52,0,0,1-1.69,1.38A5,5,0,0,1,348.67,41.82Zm.59-1.59a3.86,3.86,0,0,0,1.48-.28,2.57,2.57,0,0,0,1.09-.79,1,1,0,0,0,.41-.75V37.06a6.1,6.1,0,0,0-1.17-.33,6.26,6.26,0,0,0-1.2-.12,3.32,3.32,0,0,0-1.89.5,1.53,1.53,0,0,0-.74,1.32,1.65,1.65,0,0,0,.57,1.28A2,2,0,0,0,349.26,40.23Z" style="fill:#78a2d7"/><path d="M366.23,41.62h-2.16V35.88a3.6,3.6,0,0,0-.47-2.1,1.55,1.55,0,0,0-1.35-.66,2.71,2.71,0,0,0-.95.18,2.91,2.91,0,0,0-.89.5,3.77,3.77,0,0,0-.73.76,3.19,3.19,0,0,0-.5,1v6.09H357V31.38h2v2.05a4.18,4.18,0,0,1,1.7-1.63,5.16,5.16,0,0,1,2.47-.6,3.11,3.11,0,0,1,1.52.33,2.57,2.57,0,0,1,.94.91,4,4,0,0,1,.48,1.34,9,9,0,0,1,.14,1.59Zm-3.19-12a2.3,2.3,0,0,1-.79-.12,5.09,5.09,0,0,1-.62-.3,5.89,5.89,0,0,0-.55-.29,1.34,1.34,0,0,0-.59-.13.87.87,0,0,0-.52.14,1,1,0,0,0-.29.3,1.1,1.1,0,0,0-.12.33c0,.1,0,.16,0,.17h-1.22a3,3,0,0,1,.1-.53,2.77,2.77,0,0,1,.34-.75,2.61,2.61,0,0,1,.65-.68,1.7,1.7,0,0,1,1-.29,1.73,1.73,0,0,1,.75.14,4.92,4.92,0,0,1,.61.29l.57.29a1.47,1.47,0,0,0,.64.14,1,1,0,0,0,.56-.14.9.9,0,0,0,.33-.31,1.64,1.64,0,0,0,.14-.32c0-.1,0-.16,0-.19h1.24a2.51,2.51,0,0,1-.11.49,2.75,2.75,0,0,1-.36.76,2.42,2.42,0,0,1-.69.7A1.8,1.8,0,0,1,363,29.57Z" style="fill:#78a2d7"/><path d="M373.3,41.82a5.24,5.24,0,0,1-2.18-.43,5.05,5.05,0,0,1-2.72-2.85,5.75,5.75,0,0,1,0-4.06,5.08,5.08,0,0,1,2.74-2.85,5.18,5.18,0,0,1,2.16-.43,5.26,5.26,0,0,1,2.17.43,5.17,5.17,0,0,1,1.66,1.16,5,5,0,0,1,1.07,1.69,5.75,5.75,0,0,1,0,4.06,5,5,0,0,1-1.07,1.69,5.17,5.17,0,0,1-1.66,1.16A5.26,5.26,0,0,1,373.3,41.82Zm-3.05-5.29a3.79,3.79,0,0,0,.23,1.37,3.4,3.4,0,0,0,.65,1.09,2.86,2.86,0,0,0,1,.72,2.71,2.71,0,0,0,1.2.27,2.78,2.78,0,0,0,1.21-.27,3,3,0,0,0,1-.73,3.42,3.42,0,0,0,.64-1.1,4,4,0,0,0,0-2.73,3.37,3.37,0,0,0-.64-1.11,3,3,0,0,0-1-.73A2.78,2.78,0,0,0,373.3,33a2.53,2.53,0,0,0-1.18.28,3,3,0,0,0-1,.74,3.41,3.41,0,0,0-.66,1.11A3.81,3.81,0,0,0,370.25,36.53Z" style="fill:#78a2d7"/><path d="M380.45,27.32h2.16V38.61a1.31,1.31,0,0,0,.29.89,1.08,1.08,0,0,0,.83.32,2,2,0,0,0,.5-.07,3,3,0,0,0,.55-.18l.32,1.74a5.11,5.11,0,0,1-1.12.34,5.71,5.71,0,0,1-1.16.13,2.38,2.38,0,0,1-1.74-.61,2.27,2.27,0,0,1-.63-1.72Z" style="fill:#78a2d7"/><path d="M389,41.82a3.73,3.73,0,0,1-1.39-.25,3.17,3.17,0,0,1-1.09-.67,3.23,3.23,0,0,1-.73-1,3.17,3.17,0,0,1-.26-1.27,2.76,2.76,0,0,1,.31-1.32,3.19,3.19,0,0,1,.89-1,4.36,4.36,0,0,1,1.37-.66,6.09,6.09,0,0,1,1.76-.24,8.54,8.54,0,0,1,1.43.13,8,8,0,0,1,1.27.34v-.7a2.36,2.36,0,0,0-.65-1.78,2.55,2.55,0,0,0-1.86-.63,4.5,4.5,0,0,0-1.61.3,7.94,7.94,0,0,0-1.64.87l-.67-1.37a7.25,7.25,0,0,1,4.12-1.33,4.68,4.68,0,0,1,3.29,1.08,4,4,0,0,1,1.18,3.09v3.71a.84.84,0,0,0,.13.53.66.66,0,0,0,.47.17v1.84a4.56,4.56,0,0,1-.57.08l-.48,0a1.56,1.56,0,0,1-.95-.33,1.34,1.34,0,0,1-.41-.79l-.06-.64a4.52,4.52,0,0,1-1.69,1.38A5,5,0,0,1,389,41.82Zm.58-1.59A3.82,3.82,0,0,0,391.1,40a2.53,2.53,0,0,0,1.09-.8,1,1,0,0,0,.41-.74V37.06a6,6,0,0,0-1.16-.34,7.35,7.35,0,0,0-1.21-.11,3.24,3.24,0,0,0-1.89.5,1.53,1.53,0,0,0-.74,1.32,1.65,1.65,0,0,0,.57,1.28A2.06,2.06,0,0,0,389.62,40.23Z" style="fill:#78a2d7"/><path d="M406.43,41.82a4.55,4.55,0,0,1-1.95-.42A4.82,4.82,0,0,1,403,40.25a5.09,5.09,0,0,1-1-1.68,5.62,5.62,0,0,1-.37-2.06,6.16,6.16,0,0,1,.35-2.07,5.21,5.21,0,0,1,.95-1.68,4.41,4.41,0,0,1,1.46-1.14,4.09,4.09,0,0,1,1.85-.42,3.86,3.86,0,0,1,2.13.59,4.19,4.19,0,0,1,1.47,1.52v-6h2.16V39.08a.61.61,0,0,0,.63.7v1.84a5.42,5.42,0,0,1-.59.08l-.47,0c-.81-.08-1.27-.45-1.37-1.12l0-.84a4,4,0,0,1-1.57,1.53A4.37,4.37,0,0,1,406.43,41.82ZM407,40a2.71,2.71,0,0,0,.86-.16,3.4,3.4,0,0,0,.85-.43,3,3,0,0,0,.68-.65,2.18,2.18,0,0,0,.41-.8V35.25a3.13,3.13,0,0,0-.49-.87,3.92,3.92,0,0,0-.71-.7,3.39,3.39,0,0,0-.85-.47,2.61,2.61,0,0,0-.9-.17,2.71,2.71,0,0,0-1.25.29,3.17,3.17,0,0,0-1,.79,3.64,3.64,0,0,0-.62,1.13,4.07,4.07,0,0,0-.21,1.3,3.69,3.69,0,0,0,.24,1.33A3.63,3.63,0,0,0,404.7,39a3.08,3.08,0,0,0,1,.73A2.85,2.85,0,0,0,407,40Z" style="fill:#78a2d7"/><path d="M419.4,41.82a5.45,5.45,0,0,1-2.17-.42,5.23,5.23,0,0,1-1.68-1.15,5.08,5.08,0,0,1-1.07-1.68,5.37,5.37,0,0,1-.39-2,5.46,5.46,0,0,1,.39-2.05,5.16,5.16,0,0,1,1.07-1.7,5.1,5.1,0,0,1,1.68-1.16,5.48,5.48,0,0,1,2.19-.42,5.26,5.26,0,0,1,2.17.43,5.15,5.15,0,0,1,1.65,1.15,4.79,4.79,0,0,1,1.05,1.66,5.57,5.57,0,0,1,.36,2c0,.16,0,.3,0,.44s0,.25,0,.34h-8.21a3.49,3.49,0,0,0,.32,1.24,3.27,3.27,0,0,0,.69.95,3,3,0,0,0,1,.62,3,3,0,0,0,1.12.21,3.05,3.05,0,0,0,.85-.11,2.83,2.83,0,0,0,.78-.31,2.72,2.72,0,0,0,.62-.5,2.33,2.33,0,0,0,.44-.65l1.84.53a4.25,4.25,0,0,1-1.76,1.89A5.4,5.4,0,0,1,419.4,41.82Zm3.12-6.1a3.61,3.61,0,0,0-.32-1.19,3.11,3.11,0,0,0-.68-.93,2.79,2.79,0,0,0-1-.6,3.22,3.22,0,0,0-1.16-.21,3.12,3.12,0,0,0-1.14.21,2.84,2.84,0,0,0-.95.6,2.78,2.78,0,0,0-.67.93,3.6,3.6,0,0,0-.31,1.19Z" style="fill:#78a2d7"/><path d="M229.78,59.28v1.94h-9.54V47.31h9.37v1.94h-7.17v4h6.21V55h-6.21v4.25Z" style="fill:#78a2d7"/><path d="M237.64,61.42a4,4,0,0,1-2.16-.59A4.57,4.57,0,0,1,234,59.3v6.1h-2.16V51h1.9v1.85a4.31,4.31,0,0,1,1.53-1.47,4.09,4.09,0,0,1,2.12-.55,4.29,4.29,0,0,1,1.92.43,5,5,0,0,1,1.53,1.16,5.24,5.24,0,0,1,1,1.68,5.49,5.49,0,0,1,.37,2,6.23,6.23,0,0,1-.34,2.09,5.11,5.11,0,0,1-.94,1.68A4.44,4.44,0,0,1,239.47,61,4,4,0,0,1,237.64,61.42ZM237,59.58a2.6,2.6,0,0,0,1.23-.3,2.8,2.8,0,0,0,1-.78,3.93,3.93,0,0,0,.62-1.12,3.8,3.8,0,0,0,.22-1.29,3.65,3.65,0,0,0-.24-1.33,3.52,3.52,0,0,0-.68-1.1,3.46,3.46,0,0,0-1-.75,3,3,0,0,0-1.25-.27,2.5,2.5,0,0,0-.86.16,3.64,3.64,0,0,0-.86.43,3.45,3.45,0,0,0-.69.63,2.18,2.18,0,0,0-.41.8v2.68a3.67,3.67,0,0,0,.51.88,3.63,3.63,0,0,0,.7.71,3.47,3.47,0,0,0,.84.47A2.52,2.52,0,0,0,237,59.58Z" style="fill:#78a2d7"/><path d="M244.09,49.29V46.92h2.15v2.37Zm0,11.93V51h2.15V61.22Z" style="fill:#78a2d7"/><path d="M253,61.42a4.55,4.55,0,0,1-2-.42,5,5,0,0,1-1.54-1.15,5.24,5.24,0,0,1-1-1.68,5.62,5.62,0,0,1-.37-2.06,6.16,6.16,0,0,1,.35-2.07,4.93,4.93,0,0,1,1-1.68,4.41,4.41,0,0,1,1.46-1.14,4.09,4.09,0,0,1,1.85-.42,3.86,3.86,0,0,1,2.13.59,4.19,4.19,0,0,1,1.47,1.52v-6h2.16V58.67a.62.62,0,0,0,.63.71v1.84a5.42,5.42,0,0,1-.59.08l-.47,0a1.33,1.33,0,0,1-1.38-1.12l0-.84a4,4,0,0,1-1.57,1.53A4.37,4.37,0,0,1,253,61.42Zm.55-1.84a2.71,2.71,0,0,0,.86-.16,4,4,0,0,0,.85-.43,3,3,0,0,0,.68-.65,2.18,2.18,0,0,0,.41-.8V54.85a3.41,3.41,0,0,0-.49-.87,3.62,3.62,0,0,0-.71-.7,3.1,3.1,0,0,0-.85-.47,2.67,2.67,0,0,0-2.15.12,3.17,3.17,0,0,0-1,.79,3.59,3.59,0,0,0-.62,1.12,4.18,4.18,0,0,0-.21,1.31,3.69,3.69,0,0,0,.24,1.33,3.44,3.44,0,0,0,.67,1.09,3.23,3.23,0,0,0,1,.73A3,3,0,0,0,253.57,59.58Z" style="fill:#78a2d7"/><path d="M266,61.42a5.45,5.45,0,0,1-2.17-.42,5,5,0,0,1-2.75-2.83,5.37,5.37,0,0,1-.39-2,5.46,5.46,0,0,1,.39-2.05,5.21,5.21,0,0,1,1.07-1.71,5,5,0,0,1,1.68-1.15A5.48,5.48,0,0,1,266,50.8a5.19,5.19,0,0,1,3.82,1.57A4.92,4.92,0,0,1,270.88,54a5.57,5.57,0,0,1,.36,2,3.1,3.1,0,0,1,0,.44c0,.14,0,.25,0,.34H263a3.49,3.49,0,0,0,.33,1.24,3.23,3.23,0,0,0,.68,1,3,3,0,0,0,1,.61,2.92,2.92,0,0,0,1.13.22,3.48,3.48,0,0,0,.85-.11,3,3,0,0,0,.78-.31,2.72,2.72,0,0,0,.62-.5,2.1,2.1,0,0,0,.43-.65l1.85.53a4.31,4.31,0,0,1-1.76,1.89A5.4,5.4,0,0,1,266,61.42Zm3.12-6.1a3.34,3.34,0,0,0-.33-1.19,2.92,2.92,0,0,0-.67-.93,3,3,0,0,0-1-.6,3.23,3.23,0,0,0-1.16-.22,3.12,3.12,0,0,0-1.14.22,2.84,2.84,0,0,0-1,.6,2.78,2.78,0,0,0-.67.93,3.54,3.54,0,0,0-.31,1.19Z" style="fill:#78a2d7"/><path d="M288.66,61.22h-2.15V55.48a3.66,3.66,0,0,0-.48-2.1,1.6,1.6,0,0,0-1.37-.66,2.48,2.48,0,0,0-1.68.67,3.76,3.76,0,0,0-1.1,1.76v6.07h-2.15V55.48a3.81,3.81,0,0,0-.46-2.11,1.57,1.57,0,0,0-1.36-.65,2.54,2.54,0,0,0-1.68.66,3.67,3.67,0,0,0-1.11,1.75v6.09H273V51h2V53a4.31,4.31,0,0,1,1.59-1.66,4.48,4.48,0,0,1,2.27-.57,2.86,2.86,0,0,1,2,.66,3,3,0,0,1,.93,1.67,4.71,4.71,0,0,1,1.62-1.74,4.23,4.23,0,0,1,2.22-.59,2.91,2.91,0,0,1,1.49.34,2.6,2.6,0,0,1,.95.91,3.66,3.66,0,0,1,.5,1.32,8.28,8.28,0,0,1,.15,1.6Z" style="fill:#78a2d7"/><path d="M291.07,49.29V46.92h2.16v2.37Zm0,11.93V51h2.16V61.22Z" style="fill:#78a2d7"/><path d="M300.4,61.42a5.48,5.48,0,0,1-2.19-.43,5.17,5.17,0,0,1-1.65-1.16,5,5,0,0,1-1.06-1.7,5.73,5.73,0,0,1,0-4.05,5,5,0,0,1,1.07-1.7,5.14,5.14,0,0,1,1.66-1.15,5.67,5.67,0,0,1,4.33,0,5,5,0,0,1,2.74,2.85,5.73,5.73,0,0,1,0,4.05,5.06,5.06,0,0,1-1.07,1.7,5.19,5.19,0,0,1-3.83,1.59Zm-3.06-5.29a3.83,3.83,0,0,0,.24,1.37,3.37,3.37,0,0,0,.64,1.09,3.27,3.27,0,0,0,1,.72,2.77,2.77,0,0,0,1.21.26,2.7,2.7,0,0,0,1.2-.26,3,3,0,0,0,1-.73,3.56,3.56,0,0,0,.65-1.1,4.2,4.2,0,0,0,0-2.74,3.45,3.45,0,0,0-.65-1.1,2.92,2.92,0,0,0-1-.74,2.84,2.84,0,0,0-1.2-.26,2.69,2.69,0,0,0-1.19.27,3.2,3.2,0,0,0-1,.75,3.8,3.8,0,0,0-.9,2.47Z" style="fill:#78a2d7"/><path d="M307.55,46.92h2.15V58.2a1.24,1.24,0,0,0,.3.89,1,1,0,0,0,.82.33,2.12,2.12,0,0,0,.51-.07,3,3,0,0,0,.55-.19l.31,1.75a5.41,5.41,0,0,1-1.11.34,6.62,6.62,0,0,1-1.16.13,2.41,2.41,0,0,1-1.74-.61,2.29,2.29,0,0,1-.63-1.72Z" style="fill:#78a2d7"/><path d="M318,61.42a5.4,5.4,0,0,1-2.18-.43,5,5,0,0,1-2.72-2.86,5.73,5.73,0,0,1,0-4.05A5.16,5.16,0,0,1,318,50.8a5.26,5.26,0,0,1,2.17.43,5.14,5.14,0,0,1,1.66,1.15,5,5,0,0,1,1.07,1.7,5.73,5.73,0,0,1,0,4.05,4.91,4.91,0,0,1-1.07,1.7A5.14,5.14,0,0,1,320.12,61,5.26,5.26,0,0,1,318,61.42Zm-3.05-5.29a3.83,3.83,0,0,0,.23,1.37,3.24,3.24,0,0,0,.65,1.08,3,3,0,0,0,1,.73,2.7,2.7,0,0,0,1.2.26,2.74,2.74,0,0,0,1.21-.26,3,3,0,0,0,1-.74,3.37,3.37,0,0,0,.64-1.09,3.83,3.83,0,0,0,.24-1.37,3.87,3.87,0,0,0-.24-1.37,3.42,3.42,0,0,0-.64-1.1,3,3,0,0,0-1-.74,2.89,2.89,0,0,0-1.21-.26,2.65,2.65,0,0,0-1.18.27,3.09,3.09,0,0,0-1,.75,3.47,3.47,0,0,0-.66,1.1A3.87,3.87,0,0,0,314.9,56.13Z" style="fill:#78a2d7"/><path d="M329.16,61.32a4.23,4.23,0,0,1-1.89-.42,4.58,4.58,0,0,1-1.47-1.15,5.4,5.4,0,0,1-1-1.67,5.63,5.63,0,0,1-.34-2,6.12,6.12,0,0,1,.34-2.07,5.12,5.12,0,0,1,1-1.69,4.79,4.79,0,0,1,1.5-1.13,4.37,4.37,0,0,1,1.93-.42,4,4,0,0,1,2.17.58,5,5,0,0,1,1.53,1.53V51h1.9v10a4.42,4.42,0,0,1-.41,2,4,4,0,0,1-1.15,1.46,5,5,0,0,1-1.73.92,7.45,7.45,0,0,1-2.15.31,6.09,6.09,0,0,1-2.83-.58,5.54,5.54,0,0,1-1.9-1.62l1.22-1.13a3.79,3.79,0,0,0,1.52,1.25,4.62,4.62,0,0,0,2,.43,4.73,4.73,0,0,0,1.26-.17,2.93,2.93,0,0,0,1-.55,2.57,2.57,0,0,0,.71-.94,3.13,3.13,0,0,0,.27-1.35V59.36a3.76,3.76,0,0,1-1.51,1.45A4.24,4.24,0,0,1,329.16,61.32Zm.71-1.75a2.73,2.73,0,0,0,.94-.16,3.34,3.34,0,0,0,.83-.45,3.69,3.69,0,0,0,.66-.65,2.44,2.44,0,0,0,.39-.77V54.85a3.72,3.72,0,0,0-1.22-1.6,2.87,2.87,0,0,0-1.76-.61,2.67,2.67,0,0,0-1.27.3,3.17,3.17,0,0,0-.95.8,4.07,4.07,0,0,0-.82,2.42,3.46,3.46,0,0,0,.25,1.33,3.34,3.34,0,0,0,1.68,1.81A3,3,0,0,0,329.87,59.57Z" style="fill:#78a2d7"/><path d="M337.37,61.22V51h2.15V61.22Zm1.57-11.72-1.41-.43,1.11-2.15h2.06Z" style="fill:#78a2d7"/><path d="M344.82,61.42a3.94,3.94,0,0,1-1.39-.25,3.2,3.2,0,0,1-1.09-.68,3.08,3.08,0,0,1-.73-1,3.22,3.22,0,0,1-.26-1.28,2.72,2.72,0,0,1,.31-1.31,3.19,3.19,0,0,1,.89-1,4.38,4.38,0,0,1,1.37-.67,6.46,6.46,0,0,1,1.76-.23,7.61,7.61,0,0,1,1.43.13,7.1,7.1,0,0,1,1.27.34v-.71a2.34,2.34,0,0,0-.65-1.77,2.56,2.56,0,0,0-1.86-.64,4.31,4.31,0,0,0-1.61.31,7.94,7.94,0,0,0-1.64.87L342,52.13a7.28,7.28,0,0,1,4.12-1.33,4.63,4.63,0,0,1,3.29,1.07,4,4,0,0,1,1.18,3.1v3.7a.81.81,0,0,0,.13.53.66.66,0,0,0,.47.18v1.84c-.21,0-.4.06-.57.08l-.48,0a1.5,1.5,0,0,1-.95-.34,1.29,1.29,0,0,1-.41-.78l-.06-.65A4.43,4.43,0,0,1,347,60.93,4.82,4.82,0,0,1,344.82,61.42Zm.58-1.59a3.87,3.87,0,0,0,1.48-.29,2.51,2.51,0,0,0,1.09-.79,1,1,0,0,0,.41-.74V56.65a6.8,6.8,0,0,0-1.16-.33A6.44,6.44,0,0,0,346,56.2a3.32,3.32,0,0,0-1.89.5,1.55,1.55,0,0,0-.74,1.33,1.68,1.68,0,0,0,.57,1.28A2.06,2.06,0,0,0,345.4,59.83Z" style="fill:#78a2d7"/><path d="M357.75,63.65c.18,0,.35.06.51.08l.43,0a1.53,1.53,0,0,0,.45-.06.8.8,0,0,0,.38-.31,4,4,0,0,0,.41-.75q.22-.51.54-1.41L356.28,51h2.21l3.17,8.35L364.49,51h2l-4.68,12.62a3.09,3.09,0,0,1-1.17,1.57,3.29,3.29,0,0,1-1.83.51,3.94,3.94,0,0,1-1.09-.16Z" style="fill:#78a2d7"/><path d="M381,50.58a2.81,2.81,0,0,0-.56-.46,4.81,4.81,0,0,0-.88-.46,6.45,6.45,0,0,0-1.1-.36,6,6,0,0,0-1.3-.13,3.2,3.2,0,0,0-2,.51,1.7,1.7,0,0,0-.66,1.43,1.5,1.5,0,0,0,.21.83,1.81,1.81,0,0,0,.65.56,5.07,5.07,0,0,0,1.08.42c.43.12.93.26,1.51.4s1.3.37,1.87.57a5.62,5.62,0,0,1,1.45.73,3.13,3.13,0,0,1,.93,1.09,3.52,3.52,0,0,1,.33,1.61,3.93,3.93,0,0,1-.41,1.86A3.4,3.4,0,0,1,381,60.42a4.81,4.81,0,0,1-1.61.71,8.29,8.29,0,0,1-2,.23,10,10,0,0,1-3.08-.48,8.59,8.59,0,0,1-2.68-1.41l1-1.88a4.5,4.5,0,0,0,.72.57,6.36,6.36,0,0,0,1.11.58,8.52,8.52,0,0,0,1.4.45,6.92,6.92,0,0,0,1.59.19,3.54,3.54,0,0,0,1.94-.46,1.51,1.51,0,0,0,.7-1.35,1.47,1.47,0,0,0-.25-.88,2.26,2.26,0,0,0-.75-.62A6.86,6.86,0,0,0,378,55.6l-1.61-.44a16.35,16.35,0,0,1-1.81-.57,4.65,4.65,0,0,1-1.29-.74,2.9,2.9,0,0,1-.77-1,3.27,3.27,0,0,1-.26-1.4,4,4,0,0,1,.38-1.81,3.7,3.7,0,0,1,1.05-1.33,4.94,4.94,0,0,1,1.6-.82,7.07,7.07,0,0,1,2-.27,7.39,7.39,0,0,1,2.64.45A8.41,8.41,0,0,1,382,48.78Z" style="fill:#78a2d7"/><path d="M387.14,61.41a3.94,3.94,0,0,1-1.39-.24,3.2,3.2,0,0,1-1.09-.68,3,3,0,0,1-.73-1,3.13,3.13,0,0,1-.26-1.27,2.72,2.72,0,0,1,.31-1.31,3.19,3.19,0,0,1,.89-1,4.49,4.49,0,0,1,1.37-.67A6.46,6.46,0,0,1,388,55a8.54,8.54,0,0,1,1.43.12,7.08,7.08,0,0,1,1.27.35v-.71a2.33,2.33,0,0,0-.65-1.77,2.52,2.52,0,0,0-1.86-.64,4.34,4.34,0,0,0-1.61.31,7.94,7.94,0,0,0-1.64.87l-.67-1.37a7.29,7.29,0,0,1,4.12-1.34,4.68,4.68,0,0,1,3.29,1.08,4,4,0,0,1,1.18,3.1v3.7a.81.81,0,0,0,.13.53.71.71,0,0,0,.47.18v1.84c-.21,0-.4.06-.57.08l-.48,0a1.5,1.5,0,0,1-1-.34,1.29,1.29,0,0,1-.41-.78l-.05-.65a4.63,4.63,0,0,1-1.7,1.38A5,5,0,0,1,387.14,61.41Zm.58-1.58a3.83,3.83,0,0,0,1.48-.29,2.51,2.51,0,0,0,1.09-.79,1,1,0,0,0,.41-.75V56.65a6.8,6.8,0,0,0-1.16-.33,6.44,6.44,0,0,0-1.21-.12,3.32,3.32,0,0,0-1.89.5,1.53,1.53,0,0,0-.73,1.32,1.68,1.68,0,0,0,.56,1.29A2.11,2.11,0,0,0,387.72,59.83Z" style="fill:#78a2d7"/><path d="M395.5,46.91h2.16V58.2a1.24,1.24,0,0,0,.29.89,1,1,0,0,0,.82.32,2.5,2.5,0,0,0,.51-.06,3,3,0,0,0,.55-.19l.31,1.74a4.84,4.84,0,0,1-1.11.35,6.44,6.44,0,0,1-1.16.12,2.42,2.42,0,0,1-1.74-.6A2.3,2.3,0,0,1,395.5,59Z" style="fill:#78a2d7"/><path d="M404.48,61.41a2.88,2.88,0,0,1-2.41-1,5,5,0,0,1-.83-3.13V51h2.16v5.84c0,1.84.64,2.76,1.94,2.76A3,3,0,0,0,407.1,59a3.6,3.6,0,0,0,1.27-1.64V51h2.16v7.7a.77.77,0,0,0,.14.53.72.72,0,0,0,.49.18v1.84l-.61.08-.45,0c-.81-.07-1.27-.44-1.37-1.12l0-1.06a4.63,4.63,0,0,1-1.79,1.7A5.17,5.17,0,0,1,404.48,61.41Z" style="fill:#78a2d7"/><path d="M417.56,61.41a4.55,4.55,0,0,1-1.95-.42,4.79,4.79,0,0,1-1.53-1.14,5.24,5.24,0,0,1-1-1.69,5.62,5.62,0,0,1-.37-2.06,6.06,6.06,0,0,1,.35-2.06,5.08,5.08,0,0,1,.95-1.69,4.54,4.54,0,0,1,1.46-1.14,4.09,4.09,0,0,1,1.85-.42,3.92,3.92,0,0,1,2.13.59,4.14,4.14,0,0,1,1.47,1.53v-6h2.16V58.67a.62.62,0,0,0,.63.71v1.84l-.59.08h-.47a1.31,1.31,0,0,1-1.37-1.11l0-.84a4,4,0,0,1-1.57,1.52A4.26,4.26,0,0,1,417.56,61.41Zm.55-1.84a2.46,2.46,0,0,0,.86-.16,3.24,3.24,0,0,0,.85-.43,3.19,3.19,0,0,0,.68-.64,2.07,2.07,0,0,0,.41-.81V54.85a3,3,0,0,0-.49-.87,3.67,3.67,0,0,0-.71-.71,3.39,3.39,0,0,0-.85-.47,2.66,2.66,0,0,0-.91-.17,2.58,2.58,0,0,0-1.24.3,3.14,3.14,0,0,0-1,.78,3.64,3.64,0,0,0-.62,1.13,4.11,4.11,0,0,0-.21,1.3,3.65,3.65,0,0,0,.24,1.33,3.51,3.51,0,0,0,.67,1.09,3.26,3.26,0,0,0,1,.74A3,3,0,0,0,418.11,59.57Z" style="fill:#78a2d7"/><path d="M431,61.22V47.3h5.84a3.9,3.9,0,0,1,1.74.4,4.33,4.33,0,0,1,1.36,1,4.76,4.76,0,0,1,.89,1.45,4.33,4.33,0,0,1,.32,1.65A4.82,4.82,0,0,1,440,55a4.15,4.15,0,0,1-1.33,1,3.71,3.71,0,0,1-1.71.39h-3.76v4.84Zm2.2-6.78h3.62a1.85,1.85,0,0,0,1.51-.75,2.47,2.47,0,0,0,.43-.82,3.11,3.11,0,0,0,.16-1,3,3,0,0,0-.18-1.06,2.38,2.38,0,0,0-.49-.81,2.13,2.13,0,0,0-.71-.53,2,2,0,0,0-.83-.19h-3.51Z" style="fill:#78a2d7"/><path d="M446,61.41a2.88,2.88,0,0,1-2.41-1,5,5,0,0,1-.82-3.12V51h2.15v5.84c0,1.84.65,2.76,1.94,2.76A3.06,3.06,0,0,0,448.6,59a3.66,3.66,0,0,0,1.27-1.64V51H452v7.7a.83.83,0,0,0,.13.53.71.71,0,0,0,.49.17v1.85a5.3,5.3,0,0,1-.6.07,3.7,3.7,0,0,1-.45,0,1.3,1.3,0,0,1-1.38-1.11l0-1.06a4.6,4.6,0,0,1-1.79,1.69A5.07,5.07,0,0,1,446,61.41Zm1.86-11.91-1.41-.43,1.12-2.16h2.06Z" style="fill:#78a2d7"/><path d="M460.35,61.41a4.14,4.14,0,0,1-3.64-2.06v1.87h-1.9V46.91H457v6a4.8,4.8,0,0,1,1.52-1.55,4.25,4.25,0,0,1,4-.13,4.7,4.7,0,0,1,1.44,1.18,5.46,5.46,0,0,1,.92,1.7,6.3,6.3,0,0,1,.32,2,5.62,5.62,0,0,1-.37,2.06,5.31,5.31,0,0,1-1,1.67A4.62,4.62,0,0,1,462.25,61,4.47,4.47,0,0,1,460.35,61.41Zm-.56-1.84a2.9,2.9,0,0,0,1.29-.28,3.32,3.32,0,0,0,1-.76,3.23,3.23,0,0,0,.65-1.09,3.53,3.53,0,0,0,.24-1.3,3.9,3.9,0,0,0-.23-1.32,3.68,3.68,0,0,0-.62-1.12,3.11,3.11,0,0,0-1-.77,2.57,2.57,0,0,0-1.23-.3,2.51,2.51,0,0,0-.95.18,3.39,3.39,0,0,0-.82.48,3.88,3.88,0,0,0-.69.71,5.22,5.22,0,0,0-.52.85v2.7a2.09,2.09,0,0,0,.42.81,2.81,2.81,0,0,0,.69.64,3.21,3.21,0,0,0,.85.42A2.75,2.75,0,0,0,459.79,59.57Z" style="fill:#78a2d7"/><path d="M467.11,46.91h2.16V58.2a1.31,1.31,0,0,0,.29.89,1,1,0,0,0,.83.32,2,2,0,0,0,.5-.07,2.37,2.37,0,0,0,.55-.18l.32,1.74a5.1,5.1,0,0,1-1.12.35,6.44,6.44,0,0,1-1.16.12,2.38,2.38,0,0,1-1.74-.61,2.26,2.26,0,0,1-.63-1.72Z" style="fill:#78a2d7"/><path d="M472.93,49.28V46.91h2.16v2.37Zm0,11.94V51h2.16V61.22Z" style="fill:#78a2d7"/><path d="M477,56.08a5.55,5.55,0,0,1,.37-2,4.92,4.92,0,0,1,1.07-1.68,5.08,5.08,0,0,1,1.67-1.15,5.57,5.57,0,0,1,2.2-.42,5.09,5.09,0,0,1,2.73.7,4.44,4.44,0,0,1,1.72,1.85l-2.1.66a2.75,2.75,0,0,0-2.39-1.37,2.92,2.92,0,0,0-1.21.26,3.08,3.08,0,0,0-1,.71,3.37,3.37,0,0,0-.64,1.09,3.86,3.86,0,0,0-.24,1.39,3.64,3.64,0,0,0,.25,1.38,3.41,3.41,0,0,0,.66,1.11,3,3,0,0,0,1,.73,2.73,2.73,0,0,0,1.19.27,3,3,0,0,0,.78-.11,2.88,2.88,0,0,0,.72-.3,3.14,3.14,0,0,0,.57-.45,1.86,1.86,0,0,0,.36-.55l2.11.63a4.17,4.17,0,0,1-1.7,1.89,5.78,5.78,0,0,1-5,.3,5.13,5.13,0,0,1-1.67-1.17,5.25,5.25,0,0,1-1.08-1.69A5.56,5.56,0,0,1,477,56.08Z" style="fill:#78a2d7"/><path d="M491.33,61.41a3.85,3.85,0,0,1-1.38-.24,3.4,3.4,0,0,1-1.1-.68,3.05,3.05,0,0,1-.72-1,3,3,0,0,1-.27-1.27,2.77,2.77,0,0,1,.32-1.32,2.84,2.84,0,0,1,.89-1,4.27,4.27,0,0,1,1.37-.67,6,6,0,0,1,1.75-.24,8.45,8.45,0,0,1,1.43.13,8.18,8.18,0,0,1,1.28.34v-.7a2.36,2.36,0,0,0-.65-1.77,2.52,2.52,0,0,0-1.86-.64,4.55,4.55,0,0,0-1.62.3,9,9,0,0,0-1.63.87l-.67-1.37a7.25,7.25,0,0,1,4.11-1.33,4.72,4.72,0,0,1,3.3,1.08A4,4,0,0,1,497.05,55v3.71a.82.82,0,0,0,.14.53.66.66,0,0,0,.47.17v1.84a4.46,4.46,0,0,1-.58.08,4.19,4.19,0,0,1-.48,0,1.46,1.46,0,0,1-1-.33,1.28,1.28,0,0,1-.4-.78l-.06-.65a4.56,4.56,0,0,1-1.7,1.38A5,5,0,0,1,491.33,61.41Zm.59-1.59a3.9,3.9,0,0,0,1.48-.28,2.54,2.54,0,0,0,1.08-.79,1,1,0,0,0,.42-.75V56.65a6.92,6.92,0,0,0-2.37-.45,3.33,3.33,0,0,0-1.9.5A1.52,1.52,0,0,0,489.9,58a1.65,1.65,0,0,0,.57,1.28A2,2,0,0,0,491.92,59.82Z" style="fill:#78a2d7"/><path d="M510.51,61.31a5.89,5.89,0,0,1-2.67-.6,6.49,6.49,0,0,1-2.08-1.58,7.1,7.1,0,0,1-1.34-2.27,7.25,7.25,0,0,1-.47-2.6,7.38,7.38,0,0,1,1.88-4.92,6.85,6.85,0,0,1,2.09-1.56,6.19,6.19,0,0,1,2.65-.58,5.77,5.77,0,0,1,2.67.62,6.6,6.6,0,0,1,2.07,1.62,7.49,7.49,0,0,1,1.8,4.84,7.06,7.06,0,0,1-.5,2.66,7.18,7.18,0,0,1-1.38,2.25,6.63,6.63,0,0,1-2.08,1.54A6,6,0,0,1,510.51,61.31Zm-4.33-7.05a6.09,6.09,0,0,0,.3,1.9,5.33,5.33,0,0,0,.88,1.63,4.25,4.25,0,0,0,1.37,1.12,3.79,3.79,0,0,0,1.8.42,3.7,3.7,0,0,0,1.83-.44,4.26,4.26,0,0,0,1.37-1.16,5.42,5.42,0,0,0,.86-1.63,6,6,0,0,0,.29-1.84,5.79,5.79,0,0,0-.31-1.91,5.32,5.32,0,0,0-.88-1.61,4.57,4.57,0,0,0-1.38-1.12,3.77,3.77,0,0,0-1.78-.42,3.81,3.81,0,0,0-1.83.44,4.5,4.5,0,0,0-1.37,1.15,4.82,4.82,0,0,0-.85,1.62A5.83,5.83,0,0,0,506.18,54.26Z" style="fill:#78a2d7"/><path d="M524.85,52.83a4.68,4.68,0,0,0-2.21.58,3.13,3.13,0,0,0-1.39,1.53v6.27h-2.16V51h2v2.29a5.23,5.23,0,0,1,1.4-1.73,2.91,2.91,0,0,1,1.81-.66h.33a.75.75,0,0,1,.22,0Z" style="fill:#78a2d7"/><path d="M529,61.41a3.64,3.64,0,0,1-1.38-.25,3.18,3.18,0,0,1-1.83-1.69,3.17,3.17,0,0,1-.26-1.27,2.76,2.76,0,0,1,.31-1.32,3.19,3.19,0,0,1,.89-1,4.42,4.42,0,0,1,1.38-.66,6,6,0,0,1,1.75-.24,8.54,8.54,0,0,1,1.43.13,8,8,0,0,1,1.27.34v-.7a2.4,2.4,0,0,0-.64-1.78,2.55,2.55,0,0,0-1.86-.63,4.55,4.55,0,0,0-1.62.3,7.94,7.94,0,0,0-1.64.87l-.66-1.37a7.25,7.25,0,0,1,4.11-1.33,4.68,4.68,0,0,1,3.29,1.08A4,4,0,0,1,534.73,55v3.71a.78.78,0,0,0,.14.53.64.64,0,0,0,.47.17v1.84a4.7,4.7,0,0,1-.58.08l-.48,0a1.5,1.5,0,0,1-.95-.33,1.28,1.28,0,0,1-.4-.79l-.06-.64a4.63,4.63,0,0,1-1.7,1.38A5,5,0,0,1,529,61.41Zm.58-1.59a3.82,3.82,0,0,0,1.48-.28,2.53,2.53,0,0,0,1.09-.8,1,1,0,0,0,.41-.74V56.65a5.37,5.37,0,0,0-1.16-.33,6.36,6.36,0,0,0-1.21-.12,3.24,3.24,0,0,0-1.89.5,1.52,1.52,0,0,0-.73,1.32,1.67,1.67,0,0,0,.56,1.28A2.06,2.06,0,0,0,529.59,59.82Z" style="fill:#78a2d7"/><path d="M537.37,46.91h2.16V58.2a1.32,1.32,0,0,0,.29.89,1.08,1.08,0,0,0,.82.32,2,2,0,0,0,.51-.07,3,3,0,0,0,.55-.18L542,60.9a5.11,5.11,0,0,1-1.12.34,5.71,5.71,0,0,1-1.16.13,2.38,2.38,0,0,1-1.74-.61,2.27,2.27,0,0,1-.63-1.72Z" style="fill:#78a2d7"/></g></g></svg>