<?xml version="1.0" encoding="UTF-8" standalone="no"?> <svg xmlns:dc="http://purl.org/dc/elements/1.1/" xmlns:cc="http://creativecommons.org/ns#" xmlns:rdf="http://www.w3.org/1999/02/22-rdf-syntax-ns#" xmlns:svg="http://www.w3.org/2000/svg" xmlns="http://www.w3.org/2000/svg" viewBox="0 0 835.76343 168.66466" height="168.66466" width="835.76343" xml:space="preserve" id="svg815" version="1.1"><metadata id="metadata821"><rdf:RDF><cc:Work rdf:about=""><dc:format>image/svg+xml</dc:format><dc:type rdf:resource="http://purl.org/dc/dcmitype/StillImage" /><dc:title></dc:title></cc:Work></rdf:RDF></metadata><defs id="defs819"><clipPath id="clipPath861" clipPathUnits="userSpaceOnUse"><path id="path859" d="M 0,4124 V 5259 H 3892 V 4124 Z" /></clipPath><clipPath id="clipPath909" clipPathUnits="userSpaceOnUse"><path id="path907" d="m 256.223,4870.82 c 0,2.03 1.644,3.67 3.672,3.67 2.019,0 3.66,-1.64 3.66,-3.67 0,-2.02 -1.641,-3.66 -3.66,-3.66 -2.028,0 -3.672,1.64 -3.672,3.66 z" /></clipPath><clipPath id="clipPath981" clipPathUnits="userSpaceOnUse"><path style="clip-rule:evenodd" id="path979" d="m 259.855,4815.81 c -9.664,0.02 -18.402,0.9 -25.05,2.73 6.648,1.82 15.386,2.93 25.05,2.94 9.657,-0.01 18.434,-1.12 25.079,-2.94 -6.645,-1.83 -15.422,-2.71 -25.079,-2.73 z" /></clipPath><clipPath id="clipPath1155" clipPathUnits="userSpaceOnUse"><path style="clip-rule:evenodd" id="path1153" d="m 227.629,4763.29 h 64.519 V 4429.3 h -64.519 z" /></clipPath><clipPath id="clipPath1307" clipPathUnits="userSpaceOnUse"><path style="clip-rule:evenodd" id="path1305" d="m 851.973,4815.81 c -9.66,0.02 -18.395,0.9 -25.039,2.73 6.644,1.82 15.379,2.93 25.039,2.94 9.664,-0.01 18.441,-1.12 25.09,-2.94 -6.649,-1.83 -15.426,-2.71 -25.09,-2.73 z" /></clipPath><clipPath id="clipPath1417" clipPathUnits="userSpaceOnUse"><path id="path1415" d="m 848.352,4867 c 0,2.03 1.636,3.68 3.66,3.68 2.027,0 3.672,-1.65 3.672,-3.68 0,-2.02 -1.645,-3.66 -3.672,-3.66 -2.024,0 -3.66,1.64 -3.66,3.66 z" /></clipPath><clipPath id="clipPath1501" clipPathUnits="userSpaceOnUse"><path style="clip-rule:evenodd" id="path1499" d="M 884.52,4763.29 H 820 V 4429.3 h 64.52 z" /></clipPath><clipPath id="clipPath1561" clipPathUnits="userSpaceOnUse"><path style="clip-rule:evenodd" id="path1559" d="m 555.414,4822.47 c -43.93,0.07 -83.644,5.42 -113.871,13.69 30.227,8.26 69.941,13.32 113.871,13.39 43.934,-0.07 83.848,-5.13 114.066,-13.39 -30.218,-8.27 -70.132,-13.62 -114.066,-13.69 z" /></clipPath><clipPath id="clipPath1807" clipPathUnits="userSpaceOnUse"><path style="clip-rule:evenodd" id="path1805" d="m 537.559,5062.68 c 0,9.71 7.871,17.59 17.578,17.59 9.707,0 17.578,-7.88 17.578,-17.59 0,-9.72 -7.871,-17.59 -17.578,-17.59 -9.707,0 -17.578,7.87 -17.578,17.59 z" /></clipPath><clipPath id="clipPath1823" clipPathUnits="userSpaceOnUse"><path id="path1821" d="m 537.559,5062.68 c 0,9.71 7.871,17.59 17.578,17.59 9.707,0 17.578,-7.88 17.578,-17.59 0,-9.72 -7.871,-17.59 -17.578,-17.59 -9.707,0 -17.578,7.87 -17.578,17.59 z" /></clipPath><clipPath id="clipPath1851" clipPathUnits="userSpaceOnUse"><path style="clip-rule:evenodd" id="path1849" d="m 556.184,4445.04 c 0,-55.19 -44.258,-99.93 -99.422,-99.93 -55.157,0 -99.867,44.74 -99.867,99.93 v 139.87 h 199.289 z" /></clipPath></defs><g transform="matrix(1.3333333,0,0,-1.3333333,-1.8304799,517.79539)" id="g823"><path d="m 1.56641,290.698 c 0,15.617 12.66799,28.274 28.29879,28.274 15.6282,0 28.2993,-12.657 28.2993,-28.274 0,-15.617 -12.6711,-28.274 -28.2993,-28.274 -15.6308,0 -28.29879,12.657 -28.29879,28.274" style="fill:#8f9396;fill-opacity:1;fill-rule:nonzero;stroke:none;stroke-width:0.1" id="path835" /><path d="m 1.56641,290.698 c 0,15.617 12.66799,28.274 28.29879,28.274 15.6282,0 28.2993,-12.657 28.2993,-28.274 0,-15.617 -12.6711,-28.274 -28.2993,-28.274 -15.6308,0 -28.29879,12.657 -28.29879,28.274 z" style="fill:none;stroke:#8f9396;stroke-width:0.38710001;stroke-linecap:butt;stroke-linejoin:miter;stroke-miterlimit:3.86369991;stroke-dasharray:none;stroke-opacity:1" id="path837" /><path d="m 126.638,380.321 c 7.419,4.875 16.246,7.867 25.78,7.867 26.1,0 47.05,-21.328 47.05,-47.424 V 263.18 h -29.654 v 77.584 c 0,9.534 -7.861,17.435 -17.396,17.435 -2.638,0 -5.117,-0.701 -7.341,-1.811 1.691,-4.898 2.606,-10.157 2.606,-15.624 V 263.18 h -29.649 v 77.584 c 0,9.534 -7.862,17.435 -17.397,17.435 -2.6413,0 -5.1276,-0.704 -7.3554,-1.818 1.6907,-4.894 2.6207,-10.157 2.6207,-15.617 V 263.18 h -29.65 v 77.584 c 0,9.534 -7.8613,17.435 -17.396,17.435 -9.534,0 -17.3,-7.543 -17.3,-17.078 H 1.56641 c 0,26.096 21.19099,47.067 47.28989,47.067 9.6335,0 18.5417,-2.896 25.9722,-7.874 7.4231,4.879 16.2711,7.874 25.8085,7.874 9.631,0 18.567,-2.889 26.001,-7.867" style="fill:#ce0f3e;fill-opacity:1;fill-rule:nonzero;stroke:none;stroke-width:0.1" id="path839" /><path d="m 126.638,380.321 c 7.419,4.875 16.246,7.867 25.78,7.867 26.1,0 47.05,-21.328 47.05,-47.424 V 263.18 h -29.654 v 77.584 c 0,9.534 -7.861,17.435 -17.396,17.435 -2.638,0 -5.117,-0.701 -7.341,-1.811 1.691,-4.898 2.606,-10.157 2.606,-15.624 V 263.18 h -29.649 v 77.584 c 0,9.534 -7.862,17.435 -17.397,17.435 -2.6413,0 -5.1276,-0.704 -7.3554,-1.818 1.6907,-4.894 2.6207,-10.157 2.6207,-15.617 V 263.18 h -29.65 v 77.584 c 0,9.534 -7.8613,17.435 -17.396,17.435 -9.534,0 -17.3,-7.543 -17.3,-17.078 H 1.56641 c 0,26.096 21.19099,47.067 47.28989,47.067 9.6335,0 18.5417,-2.896 25.9722,-7.874 7.4231,4.879 16.2711,7.874 25.8085,7.874 9.631,0 18.567,-2.889 26.001,-7.867 z" style="fill:none;stroke:#ce0f3e;stroke-width:0.31709999;stroke-linecap:butt;stroke-linejoin:miter;stroke-miterlimit:3.86369991;stroke-dasharray:none;stroke-opacity:1" id="path841" /><g id="g843"><text transform="matrix(1,0,0,-1,221.35,357.44)" style="font-variant:normal;font-weight:normal;font-size:38.90159988px;font-family:Arial;-inkscape-font-specification:ArialMT;writing-mode:lr-tb;fill:#8f9396;fill-opacity:1;fill-rule:nonzero;stroke:none" id="text847"><tspan x="0 23.76897 47.537941 71.306908 95.075882 116.66636 127.471 151.24678 168.823 192.59245 214.18781 237.4968 261.26529 285.03479 308.80325 319.60309 343.37888 360.95505 384.73004" y="0" id="tspan845">agencia española de</tspan></text> <text transform="matrix(1,0,0,-1,221.3501,313.481)" style="font-variant:normal;font-weight:bold;font-size:38.90159988px;font-family:Arial;-inkscape-font-specification:Arial-BoldMT;writing-mode:lr-tb;fill:#8f9396;fill-opacity:1;fill-rule:nonzero;stroke:none" id="text853"><tspan x="0 42.013771 71.073311 102.27244 120.51733 149.57687 178.63641 220.66701 249.7265 280.9256 301.31003 332.50299 361.56781 385.83698" y="0" id="tspan849">medicamentos y</tspan><tspan x="0 24.935917 41.23568 66.1716 91.107513 116.024 138.8208 152.94159 177.8783 200.68025 213.6283 236.42509 259.22098 284.16309 296.13733 309.28729 332.08316 348.38361 360.36481 385.29901" y="43.959" id="tspan851">productos sanitarios</tspan></text> </g></g></svg>