<?xml version="1.0" encoding="UTF-8"?>
<!-- Generator: Adobe Illustrator 26.3.1, SVG Export Plug-In . SVG Version: 6.00 Build 0)  -->
<svg width="1721.4" height="482.6" version="1.1" viewBox="0 0 1721.4 482.6" xml:space="preserve" xmlns="http://www.w3.org/2000/svg">
<style type="text/css">
	.st0{fill-rule:evenodd;clip-rule:evenodd;fill:#A6192E;}
	.st1{fill:#A6192E;}
	.st2{fill-rule:evenodd;clip-rule:evenodd;fill:#231F20;}
	.st3{fill:#231F20;}
	.st4{display:none;}
	.st5{display:inline;fill-rule:evenodd;clip-rule:evenodd;fill:#231F20;}
</style>
<g transform="matrix(10,0,0,10,-2.7,-7.2)">
	
		
			
				<path class="st0" d="m58.9 48.92c1.34 0 2.48-1.04 2.48-2.46 0-1.41-1.14-2.45-2.48-2.45-1.35 0-2.49 1.04-2.49 2.45 0 1.42 1.14 2.46 2.49 2.46zm-2-2.46c0-1.16 0.88-2.04 2-2.04 1.11 0 1.99 0.88 1.99 2.04 0 1.18-0.88 2.05-1.99 2.05-1.12 0-2-0.87-2-2.05zm1.48 0.19h0.49l0.75 1.23h0.48l-0.8-1.25c0.42-0.05 0.73-0.27 0.73-0.78 0-0.56-0.33-0.8-1-0.8h-1.08v2.83h0.43zm0-0.36v-0.88h0.58c0.3 0 0.62 0.06 0.62 0.42 0 0.44-0.32 0.46-0.69 0.46z"/>
				<polygon class="st1" points="22.02 11.2 28 21.64 43.55 48.82 55.53 48.82 27.9 0.96"/>
				<polygon class="st1" points="27.92 21.41 15.98 21.41 0.27 48.82 31.07 48.82 37.39 37.97 18.48 37.97"/>
				<path class="st2" d="m92.85 7.5c0-2.22-1.54-3.38-3.51-3.38-1.62 0-2.36 1.12-2.7 1.62-0.68-1.08-1.35-1.62-2.81-1.62-1.79 0-2.53 1.08-2.87 1.75h-0.04v-1.49h-2.55v10.11h2.66v-6.15c0-1.1 0.4-1.98 1.65-1.98 1.6 0 1.6 1.2 1.6 2.05v6.08h2.66v-6.06c0-1.2 0.48-2.07 1.81-2.07 0.78 0 1.44 0.49 1.44 2v6.14h2.66z"/>
				<path class="st2" d="m104.86 14.49h2.66v-5.26c0-1.12 0.38-2.41 2.45-2.41 0.25 0 0.53 0 0.76 0.04v-2.7c-0.17-0.02-0.34-0.04-0.51-0.04-1.61 0-2.22 0.99-2.77 2.01h-0.04v-1.75h-2.55z"/>
				<path class="st2" d="m111.86 4.38v10.11h2.66v-10.11zm2.66-3.66h-2.66v2.47h2.66z"/>
				<path class="st2" d="m122.59 10.81c0 0.48-0.46 1.77-1.8 1.77-2.01 0-2.05-2.19-2.05-3.29 0-1.25 0.44-2.93 2.11-2.93 1.24-0.08 1.65 0.97 1.77 1.63h2.7c-0.25-3.15-2.87-3.88-4.47-3.88-3.42 0-4.85 2.34-4.85 5.61 0 2.13 0.87 5.04 4.67 5.04 3.71 0 4.52-2.91 4.62-3.95z"/>
				<path class="st2" d="m134.85 7.04c0-2.49-2.6-2.93-4.03-2.93-2.07 0-4.22 0.44-4.52 3.53h2.56c0.08-0.59 0.3-1.41 1.63-1.41 0.68 0 1.75 0.06 1.75 1.18 0 0.57-0.51 0.74-0.93 0.8l-2.39 0.36c-1.69 0.25-2.94 1.25-2.94 3.23 0 2.09 1.56 2.95 3.08 2.95 1.8 0 2.66-0.84 3.27-1.46 0.06 0.57 0.09 0.72 0.25 1.2h2.87v-0.4c-0.32-0.11-0.59-0.38-0.59-1.58v-5.47zm-2.6 3.82c0 1.24-1.2 1.99-2.37 1.99-0.51 0-1.24-0.28-1.24-1.22 0-1.1 0.82-1.35 1.8-1.52 1.1-0.17 1.54-0.34 1.8-0.55v1.3z"/>
				<path class="st2" d="m145.88 7.5c0-2.22-1.54-3.38-3.52-3.38-1.92 0-2.68 1.14-3.04 1.75h-0.04v-1.49h-2.55v10.11h2.66v-5.79c0-1.54 0.91-2.34 2.09-2.34 1.69 0 1.73 1.25 1.73 2v6.14h2.66v-7z"/>
				<path class="st2" d="m68.26 11.68h5.03l0.87 2.81h3.1l-4.81-13.64h-3.29l-4.86 13.64h3zm2.5-7.75h0.04l1.69 5.4h-3.48z"/>
				<path class="st2" d="m100.75 11.53c-0.21 0.72-0.97 1.1-1.71 1.1-2.15 0-2.3-1.71-2.38-2.47h6.94v-0.47c0-4.62-2.76-5.57-4.75-5.57-4.43 0-4.85 3.9-4.85 5.11 0 4.16 2.19 5.53 5.04 5.53 1.73 0 3.74-0.8 4.45-3.23zm-4.01-3.1c0.15-1.33 0.82-2.13 2.07-2.13 0.86 0 1.9 0.49 2.05 2.13z"/>
				<path class="st2" d="m169.93 48.76c1.34 0 2.48-1.04 2.48-2.46 0-1.41-1.14-2.45-2.48-2.45-1.35 0-2.49 1.04-2.49 2.45 0 1.42 1.14 2.46 2.49 2.46zm-2-2.47c0-1.16 0.88-2.04 2-2.04 1.11 0 1.99 0.88 1.99 2.04 0 1.18-0.88 2.05-1.99 2.05-1.12 0.01-2-0.86-2-2.05zm1.48 0.2h0.49l0.75 1.23h0.48l-0.81-1.25c0.42-0.05 0.73-0.27 0.73-0.78 0-0.56-0.33-0.8-1-0.8h-1.08v2.83h0.43v-1.23zm0-0.36v-0.88h0.59c0.3 0 0.62 0.06 0.62 0.42 0 0.44-0.32 0.46-0.69 0.46z"/>
				<path class="st2" d="m165.53 41.72c0-2.22-1.54-3.38-3.52-3.38-1.92 0-2.68 1.14-3.04 1.75h-0.04v-1.49h-2.55v10.11h2.66v-5.8c0-1.54 0.91-2.34 2.09-2.34 1.69 0 1.73 1.25 1.73 2v6.14h2.66v-6.99z"/>
				<path class="st2" d="m68.26 45.9h5.03l0.87 2.81h3.1l-4.81-13.64h-3.29l-4.86 13.64h3zm2.5-7.75h0.04l1.69 5.4h-3.48z"/>
				<path class="st2" d="m86.72 41.68c-0.21-2.85-2.57-3.35-4.54-3.35-3.15 0-4.09 1.9-4.09 3.38 0 3.78 6.27 2.51 6.27 4.2 0 0.38-0.32 1.05-1.69 1.05-1.67 0-2.2-0.63-2.2-1.48h-2.74c0.08 2.7 2.56 3.5 4.86 3.5 1.58 0 4.43-0.53 4.43-3.48 0-3.72-6.33-2.56-6.33-4.16 0-0.44 0.19-0.99 1.63-0.99s1.67 0.68 1.79 1.33z"/>
				<path class="st2" d="m96.8 41.68c-0.21-2.85-2.57-3.35-4.54-3.35-3.15 0-4.08 1.9-4.08 3.38 0 3.78 6.27 2.51 6.27 4.2 0 0.38-0.32 1.05-1.69 1.05-1.67 0-2.2-0.63-2.2-1.48h-2.74c0.08 2.7 2.57 3.5 4.86 3.5 1.58 0 4.43-0.53 4.43-3.48 0-3.72-6.33-2.56-6.33-4.16 0-0.44 0.19-0.99 1.63-0.99s1.67 0.68 1.79 1.33z"/>
				<path class="st2" d="m108.3 43.66c0-3.65-2.45-5.32-5.17-5.32s-5.17 1.67-5.17 5.32 2.45 5.32 5.17 5.32 5.17-1.67 5.17-5.32zm-2.74 0c0 1.29-0.38 3.08-2.43 3.08s-2.43-1.79-2.43-3.08 0.38-3.08 2.43-3.08 2.43 1.79 2.43 3.08z"/>
				<path class="st2" d="m115.68 45.03c0 0.47-0.46 1.77-1.8 1.77-2.01 0-2.05-2.19-2.05-3.29 0-1.25 0.44-2.93 2.11-2.93 1.24-0.08 1.65 0.97 1.77 1.63h2.7c-0.25-3.15-2.87-3.88-4.46-3.88-3.42 0-4.85 2.34-4.85 5.61 0 2.13 0.87 5.03 4.67 5.03 3.71 0 4.52-2.91 4.62-3.95h-2.71z"/>
				<path class="st2" d="m119.83 38.6v10.11h2.66v-10.11zm2.66-3.66h-2.66v2.47h2.66z"/>
				<path class="st2" d="m132.74 41.26c0-2.49-2.6-2.93-4.03-2.93-2.07 0-4.22 0.44-4.52 3.53h2.57c0.08-0.59 0.3-1.41 1.63-1.41 0.68 0 1.75 0.06 1.75 1.18 0 0.57-0.51 0.74-0.93 0.8l-2.39 0.36c-1.69 0.25-2.94 1.25-2.94 3.23 0 2.09 1.56 2.94 3.08 2.94 1.81 0 2.66-0.84 3.27-1.46 0.06 0.57 0.09 0.72 0.25 1.2h2.87v-0.4c-0.32-0.11-0.59-0.38-0.59-1.58v-5.46zm-2.6 3.82c0 1.24-1.2 2-2.38 2-0.51 0-1.24-0.28-1.24-1.22 0-1.1 0.82-1.35 1.81-1.52 1.1-0.17 1.54-0.34 1.8-0.55v1.29z"/>
				<path class="st2" d="m137.62 35.87h-2.66v2.74h-1.37v1.9h1.37v6.14c0 1.31 0.42 2.19 2.72 2.19h0.34c0.42 0 0.84-0.02 1.25-0.04v-2.01c-0.19 0.02-0.38 0.04-0.55 0.04-1.08 0-1.1-0.23-1.1-0.82v-5.51h1.65v-1.9h-1.65z"/>
				<path class="st2" d="m140.55 38.6v10.11h2.66v-10.11zm2.66-3.66h-2.66v2.47h2.66z"/>
				<path class="st2" d="m155.02 43.66c0-3.65-2.45-5.32-5.17-5.32s-5.17 1.67-5.17 5.32 2.45 5.32 5.17 5.32 5.17-1.67 5.17-5.32zm-2.74 0c0 1.29-0.38 3.08-2.43 3.08s-2.43-1.79-2.43-3.08 0.38-3.08 2.43-3.08 2.43 1.79 2.43 3.08z"/>
				<path class="st2" d="m65.72 31.6h5.91c4.5 0 5.66-4.22 5.66-7.14 0-2.58-0.95-6.5-5.55-6.5h-6.02zm2.79-11.28h2.74c1.22 0 3.14 0.32 3.14 4.35 0 2.24-0.78 4.58-3.1 4.58h-2.77v-8.93z"/>
				<path class="st2" d="m78.82 21.49v10.11h2.66v-10.11zm2.66-3.66h-2.66v2.47h2.66z"/>
				<path class="st2" d="m100.63 26.62c0 1.2-0.47 3.06-2.19 3.06-1.69 0-2.36-1.41-2.36-2.91 0-1.61 0.46-3.25 2.28-3.25 1.7 0.01 2.27 1.51 2.27 3.1zm-4.42-8.66h-2.66v13.64h2.6v-1.27h0.04c0.65 1.14 1.82 1.54 2.93 1.54 3 0 4.26-2.66 4.26-5.43 0-3.5-1.98-5.21-4.2-5.21-1.71 0-2.51 0.93-2.93 1.58h-0.04z"/>
				<path class="st2" d="m117.81 18.76h-2.66v2.74h-1.37v1.9h1.37v6.14c0 1.31 0.42 2.18 2.72 2.18h0.34c0.42 0 0.84-0.02 1.25-0.04v-2.01c-0.19 0.02-0.38 0.04-0.55 0.04-1.08 0-1.1-0.23-1.1-0.82v-5.49h1.65v-1.9h-1.65z"/>
				<path class="st2" d="m126.61 28.64c-0.21 0.72-0.97 1.1-1.71 1.1-2.15 0-2.3-1.71-2.38-2.47h6.94v-0.47c0-4.62-2.76-5.57-4.75-5.57-4.43 0-4.85 3.89-4.85 5.11 0 4.16 2.19 5.53 5.04 5.53 1.73 0 3.74-0.8 4.45-3.23zm-4-3.1c0.15-1.33 0.82-2.13 2.07-2.13 0.85 0 1.9 0.49 2.05 2.13z"/>
				<path class="st2" d="m91.73 24.15c0-2.49-2.6-2.93-4.03-2.93-2.07 0-4.22 0.44-4.52 3.53h2.56c0.08-0.59 0.3-1.41 1.63-1.41 0.68 0 1.75 0.06 1.75 1.18 0 0.57-0.51 0.74-0.93 0.8l-2.39 0.36c-1.69 0.25-2.95 1.25-2.95 3.23 0 2.09 1.56 2.94 3.08 2.94 1.81 0 2.66-0.84 3.27-1.46 0.06 0.57 0.09 0.72 0.25 1.2h2.87v-0.4c-0.32-0.11-0.59-0.38-0.59-1.58zm-2.6 3.82c0 1.24-1.2 2-2.38 2-0.51 0-1.23-0.29-1.23-1.22 0-1.1 0.82-1.35 1.81-1.52 1.1-0.17 1.54-0.34 1.81-0.55v1.29z"/>
				<path class="st2" d="m110.69 28.64c-0.21 0.72-0.97 1.1-1.71 1.1-2.15 0-2.3-1.71-2.38-2.47h6.93v-0.47c0-4.62-2.75-5.57-4.75-5.57-4.43 0-4.84 3.89-4.84 5.11 0 4.16 2.18 5.53 5.04 5.53 1.73 0 3.74-0.8 4.45-3.23zm-4-3.1c0.15-1.33 0.82-2.13 2.07-2.13 0.86 0 1.9 0.49 2.05 2.13z"/>
				<path class="st2" d="m139.07 24.57c-0.21-2.85-2.56-3.34-4.54-3.34-3.15 0-4.08 1.9-4.08 3.38 0 3.78 6.27 2.51 6.27 4.2 0 0.38-0.32 1.05-1.69 1.05-1.67 0-2.2-0.63-2.2-1.48h-2.74c0.08 2.7 2.56 3.5 4.86 3.5 1.58 0 4.43-0.53 4.43-3.48 0-3.72-6.33-2.56-6.33-4.16 0-0.44 0.19-0.99 1.63-0.99s1.67 0.68 1.79 1.33h2.6z"/>
			
			
		
		
	
</g>
<g class="st4">
	<path class="st5" d="m165.6-5.74c0-4.5-3.03-6.57-6.38-6.57s-6.38 2.06-6.38 6.57c0 4.5 3.03 6.57 6.38 6.57 3.36 0 6.38-2.06 6.38-6.57zm-3.37 0c0 1.6-0.47 3.8-3 3.8s-3-2.21-3-3.8 0.47-3.8 3-3.8 3 2.21 3 3.8z"/>
</g>
</svg>
