<?xml version="1.0" encoding="utf-8"?>
<!-- Generator: Adobe Illustrator 25.4.4, SVG Export Plug-In . SVG Version: 6.00 Build 0)  -->
<svg version="1.1" id="Capa_1" xmlns="http://www.w3.org/2000/svg" xmlns:xlink="http://www.w3.org/1999/xlink" x="0px" y="0px"
	 viewBox="0 0 904.7 449.2" style="enable-background:new 0 0 904.7 449.2;" xml:space="preserve">
<style type="text/css">
	.st0{fill-rule:evenodd;clip-rule:evenodd;}
	.st1{fill:url(#SVGID_1_);}
	.st2{fill:url(#SVGID_00000083794452654431938900000009245768032258585232_);}
	.st3{fill:url(#SVGID_00000021079828830114255580000012999744449064007075_);}
	.st4{fill:#FFFFFF;}
	.st5{fill:url(#SVGID_00000083048883424685721700000002769370462106363323_);}
	.st6{fill-rule:evenodd;clip-rule:evenodd;fill:#FFFFFF;stroke:#FFFFFF;stroke-width:0.5868;stroke-miterlimit:3.8637;}
</style>
<polygon points="213.7,430.5 231,430.5 231,426.6 218.2,426.6 218.2,413.8 229.8,413.8 229.8,409.8 218.2,409.8 218.2,398.4 
	230.3,398.4 230.3,394.4 213.7,394.4 "/>
<path d="M237.3,430.5h4.3v-15.9c0-4.8,2.2-7.1,5.5-7.1c2.8,0,4.3,1.8,4.3,6v17h4.3v-18.3c0-5.8-3.1-8.4-7.6-8.4
	c-3,0-5.2,1.3-6.6,4.3h-0.1l-0.2-3.9H237c0.1,1.9,0.2,3.8,0.2,5.7v20.6H237.3z"/>
<path class="st0" d="M277.2,417.3c0,6.6-1.8,10-5.7,10c-3.9,0-5.7-3.4-5.7-10s1.8-10,5.7-10C275.4,407.3,277.2,410.7,277.2,417.3
	L277.2,417.3z M281.5,391.7h-4.3v16h-0.1c-1.7-2.8-3.7-4-6.7-4c-5.4,0-9,4.4-9,13.5s3.6,13.5,9,13.5c3.8,0,5.7-2.2,6.9-4.2h0.1
	l0.2,3.9h4.2c-0.1-1.6-0.2-3.3-0.2-4.9v-33.8H281.5z"/>
<path class="st0" d="M291.3,417.3c0-6.6,1.9-10,6-10s6,3.4,6,10s-1.9,10-6,10C293.2,427.4,291.3,423.9,291.3,417.3L291.3,417.3z
	 M286.8,417.3c0,8.3,3.6,13.5,10.5,13.5s10.5-5.3,10.5-13.5c0-8.3-3.6-13.5-10.5-13.5S286.8,409.1,286.8,417.3L286.8,417.3z"/>
<path d="M329.1,404.8c-1.4-0.7-3.4-1-5.2-1c-7.3,0-11.7,5.3-11.7,13.8c0,7.4,3.8,13.3,11.6,13.3c1.9,0,4.2-0.6,5.5-1.1l-0.2-4
	c-1.5,0.8-3.2,1.4-5.3,1.4c-4.2,0-7.1-3.5-7.1-9.6c0-7.1,3-10.1,7.2-10.1c2,0,3.5,0.4,5,1.2L329.1,404.8L329.1,404.8z"/>
<path d="M334.2,430.5h4.3v-14c0-5.7,2.4-8.6,5.7-8.6c0.6,0,1.1,0.1,1.6,0.2v-4.3c-3.8,0-6,1.3-7.4,4.5h-0.1l-0.2-4.1H334
	c0.1,1.9,0.2,3.8,0.2,5.7V430.5L334.2,430.5z"/>
<path class="st0" d="M350.5,430.5h4.3v-26.4h-4.3V430.5L350.5,430.5z M350.3,393.3v5.2h4.7v-5.2H350.3L350.3,393.3z"/>
<path d="M362.2,430.5h4.3v-15.9c0-4.8,2.2-7.1,5.5-7.1c2.8,0,4.3,1.8,4.3,6v17h4.3v-18.3c0-5.8-3.1-8.4-7.6-8.4
	c-3,0-5.2,1.3-6.6,4.3h-0.1l-0.2-3.9H362c0.1,1.9,0.2,3.8,0.2,5.7V430.5L362.2,430.5z"/>
<path class="st0" d="M390.9,417.3c0-6.6,1.9-10,6-10s6,3.4,6,10s-1.9,10-6,10C392.8,427.4,390.9,423.9,390.9,417.3L390.9,417.3z
	 M386.4,417.3c0,8.3,3.6,13.5,10.5,13.5s10.5-5.3,10.5-13.5c0-8.3-3.6-13.5-10.5-13.5S386.4,409.1,386.4,417.3L386.4,417.3z"/>
<polygon points="413.5,430.5 417.8,430.5 417.8,391.7 413.5,391.7 "/>
<path class="st0" d="M428.4,417.3c0-6.6,1.9-10,6-10s6,3.4,6,10s-1.9,10-6,10C430.3,427.4,428.4,423.9,428.4,417.3L428.4,417.3z
	 M423.9,417.3c0,8.3,3.6,13.5,10.5,13.5s10.5-5.3,10.5-13.5c0-8.3-3.6-13.5-10.5-13.5S423.9,409.1,423.9,417.3L423.9,417.3z"/>
<path class="st0" d="M453.6,417.3c0-6.6,1.8-10,5.7-10c3.9,0,5.7,3.4,5.7,10s-1.8,10-5.7,10C455.4,427.4,453.6,423.9,453.6,417.3
	L453.6,417.3z M469.4,409c0-1.6,0.2-3.3,0.2-4.8h-4.2l-0.2,3.8h-0.1c-1.4-2.5-3.8-4.2-6.4-4.2c-5.8,0-9.5,4.4-9.5,13.5
	s3.6,13.5,9,13.5c2.9,0,5.2-1.4,6.9-4.4h0.1v4.1c0,4.5-2.1,7.7-7.3,7.7c-2.4,0-5.3-1-7.2-2.3l-0.2,4.4c1.9,0.8,5.4,1.6,7.6,1.6
	c5.7,0,11.2-3,11.2-10.3V409H469.4z"/>
<path class="st0" d="M476,400.5h3.3l5.2-7.5h-5.1L476,400.5L476,400.5z M476.4,430.5h4.3v-26.4h-4.3V430.5L476.4,430.5z"/>
<path class="st0" d="M489.6,410c1.5-1.7,4.1-2.7,6.7-2.7c1.8,0,3.5,0.5,4.4,1.7c0.8,1.1,1,2.3,1,4.2v1.2h-2.5
	c-9,0-12.3,3.8-12.3,8.9s3.2,7.6,7.5,7.6c4,0,6.2-1.9,7.3-3.9h0.1l0.3,3.6h3.9c-0.1-0.9-0.2-2.5-0.2-4v-13.7c0-3.7-1.1-5.3-2.3-6.5
	c-0.8-0.8-3.1-2.5-7-2.5c-2.6,0-5.2,0.8-7.4,2.2L489.6,410L489.6,410z M501.6,420.9c0,3.6-2.4,6.7-6.1,6.7c-3,0-4.4-1.8-4.4-4.6
	c0-3.1,2.4-5.5,7.5-5.5c1.2,0,2.3,0,3,0.1V420.9L501.6,420.9z"/>
<path d="M542.9,404.1h-4.3l-5.4,21.5H533l-5.8-21.5h-4.5l8.3,26.8l-1,4c-0.7,2.7-1.6,3.3-2.9,3.3c-0.9,0-1.7-0.2-2.4-0.5l-0.2,3.9
	c0.8,0.2,1.9,0.3,2.9,0.3c3.3,0,5.1-1.6,6.4-6.1L542.9,404.1L542.9,404.1z"/>
<polygon points="561,430.5 565.4,430.5 565.4,400.9 565.5,400.9 578.9,430.5 584.5,430.5 584.5,394.4 580.2,394.4 580.2,424.2 
	580.1,424.2 566.6,394.4 561,394.4 "/>
<path d="M610.8,404.1h-4.3V420c0,4.8-2.2,7.1-5.5,7.1c-2.8,0-4.3-1.8-4.3-6v-17h-4.3v18.3c0,5.8,3.1,8.4,7.6,8.4
	c3,0,5.2-1.3,6.6-4.3h0.1l0.2,3.9h4.2c-0.1-1.9-0.2-3.8-0.2-5.7L610.8,404.1L610.8,404.1z"/>
<path d="M629.3,426.7c-0.8,0.4-1.6,0.7-2.7,0.7c-1.9,0-2.7-1.1-2.7-4.1v-15.6h5.4v-3.5h-5.4v-6.7l-4.3,1.3v5.4h-4.2v3.5h4.2v17
	c0,4.7,2.1,6.3,6,6.3c1.2,0,2.6-0.3,3.6-0.7v-3.6H629.3z"/>
<path d="M633.6,430.5h4.3v-14c0-5.7,2.4-8.6,5.7-8.6c0.6,0,1.1,0.1,1.6,0.2v-4.3c-3.8,0-6,1.3-7.4,4.5h-0.1l-0.2-4.1h-4.2
	c0.1,1.9,0.2,3.8,0.2,5.7v20.6H633.6z"/>
<path class="st0" d="M650,430.5h4.3v-26.4H650V430.5L650,430.5z M649.8,393.3v5.2h4.7v-5.2H649.8L649.8,393.3z"/>
<path d="M677.2,404.8c-1.4-0.7-3.4-1-5.2-1c-7.3,0-11.7,5.3-11.7,13.8c0,7.4,3.8,13.3,11.6,13.3c1.9,0,4.2-0.6,5.5-1.1l-0.2-4
	c-1.5,0.8-3.2,1.4-5.3,1.4c-4.2,0-7.1-3.5-7.1-9.6c0-7.1,3-10.1,7.2-10.1c2,0,3.5,0.4,5,1.2L677.2,404.8L677.2,404.8z"/>
<path class="st0" d="M682.7,430.5h4.3v-26.4h-4.3V430.5L682.7,430.5z M682.5,393.3v5.2h4.7v-5.2H682.5L682.5,393.3z"/>
<path class="st0" d="M701.1,400.5h3.3l5.2-7.5h-5.1L701.1,400.5L701.1,400.5z M697.7,417.3c0-6.6,1.9-10,6-10s6,3.4,6,10
	s-1.9,10-6,10C699.6,427.4,697.7,423.9,697.7,417.3L697.7,417.3z M693.1,417.3c0,8.3,3.6,13.5,10.5,13.5s10.5-5.3,10.5-13.5
	c0-8.3-3.6-13.5-10.5-13.5C696.7,403.8,693.1,409.1,693.1,417.3L693.1,417.3z"/>
<path d="M719.9,430.5h4.3v-15.9c0-4.8,2.2-7.1,5.5-7.1c2.8,0,4.3,1.8,4.3,6v17h4.3v-18.3c0-5.8-3.1-8.4-7.6-8.4
	c-3,0-5.2,1.3-6.6,4.3H724l-0.2-3.9h-4.2c0.1,1.9,0.2,3.8,0.2,5.7v20.6H719.9z"/>
<path d="M228.4,335.4c-1.6-0.7-4.1-1.2-6.5-1.2c-5.4,0-9.9,3.1-9.9,9c0,4.7,1.4,6.9,7.9,10.8c4.8,2.9,5.5,4.5,5.5,7.3
	c0,2.9-2.3,5.7-6.4,5.7c-2.1,0-4.8-1.1-6.8-2.3v4.7c1.9,0.9,4.6,1.6,7.5,1.6c6.9,0,10.4-4.5,10.4-10.2c0-4.1-1.8-7.3-7.4-10.5
	c-5.1-3-6-4.4-6-6.8c0-3.1,2.2-5.4,5.6-5.4c2.2,0,4.4,0.6,6.1,1.7L228.4,335.4L228.4,335.4z"/>
<path class="st0" d="M239.6,357.4c0-6.6,1.9-10,6-10s6,3.4,6,10s-1.9,10-6,10C241.4,367.5,239.6,364,239.6,357.4L239.6,357.4z
	 M235,357.4c0,8.3,3.6,13.5,10.5,13.5s10.5-5.3,10.5-13.5c0-8.3-3.6-13.5-10.5-13.5S235,349.2,235,357.4L235,357.4z"/>
<path d="M277.3,344.9c-1.4-0.7-3.4-1-5.2-1c-7.3,0-11.7,5.3-11.7,13.8c0,7.4,3.8,13.3,11.6,13.3c1.9,0,4.2-0.6,5.5-1.1l-0.2-4
	c-1.5,0.8-3.2,1.4-5.3,1.4c-4.2,0-7.1-3.5-7.1-9.6c0-7.1,3-10.1,7.2-10.1c2,0,3.5,0.4,5,1.2L277.3,344.9L277.3,344.9z"/>
<path class="st0" d="M282.8,370.6h4.3v-26.4h-4.3V370.6L282.8,370.6z M282.6,333.4v5.2h4.7v-5.2H282.6L282.6,333.4z"/>
<path class="st0" d="M312.5,358.7v-2.3c0-7.8-3.3-12.5-9.2-12.5c-6.5,0-10.1,5.3-10.1,13.5c0,8.3,3.6,13.5,10.5,13.5
	c2.6,0,5.3-0.6,7.3-1.6l-0.2-3.9c-1.5,1.1-3.8,2.2-6,2.2c-4.8,0-7.1-2.8-7.1-8.9L312.5,358.7L312.5,358.7z M297.8,355.4
	c0.1-6.2,2.6-8.2,5.3-8.2c3.4,0,5.1,2.7,5.1,8.2H297.8L297.8,355.4z"/>
<path class="st0" d="M332.5,357.4c0,6.6-1.8,10-5.7,10c-3.9,0-5.7-3.4-5.7-10s1.8-10,5.7-10S332.5,350.8,332.5,357.4L332.5,357.4z
	 M336.8,331.8h-4.3v16h-0.1c-1.7-2.8-3.7-4-6.7-4c-5.4,0-9,4.4-9,13.5s3.6,13.5,9,13.5c3.8,0,5.7-2.2,6.9-4.2h0.1l0.2,3.9h4.2
	c-0.1-1.6-0.2-3.3-0.2-4.9v-33.8H336.8z"/>
<path class="st0" d="M344.9,350.1c1.5-1.7,4.1-2.7,6.7-2.7c1.8,0,3.5,0.5,4.4,1.7c0.8,1.1,1,2.3,1,4.2v1.2h-2.5
	c-9,0-12.3,3.8-12.3,8.9s3.2,7.6,7.5,7.6c4,0,6.2-1.9,7.3-3.9h0.1l0.3,3.6h3.9c-0.1-0.9-0.2-2.5-0.2-4V353c0-3.7-1.1-5.3-2.3-6.5
	c-0.8-0.8-3.1-2.5-7-2.5c-2.6,0-5.2,0.8-7.4,2.2L344.9,350.1L344.9,350.1z M356.9,361c0,3.6-2.4,6.7-6.1,6.7c-3,0-4.4-1.8-4.4-4.6
	c0-3,2.4-5.5,7.5-5.5c1.2,0,2.3,0,3,0.1V361L356.9,361z"/>
<path class="st0" d="M382.4,357.4c0,6.6-1.8,10-5.7,10c-3.9,0-5.7-3.4-5.7-10s1.8-10,5.7-10S382.4,350.8,382.4,357.4L382.4,357.4z
	 M386.7,331.8h-4.3v16h-0.1c-1.7-2.8-3.7-4-6.7-4c-5.4,0-9,4.4-9,13.5s3.6,13.5,9,13.5c3.8,0,5.7-2.2,6.9-4.2h0.1l0.2,3.9h4.2
	c-0.1-1.6-0.2-3.3-0.2-4.9v-33.8H386.7z"/>
<polygon points="420.1,370.6 437.5,370.6 437.5,366.7 424.6,366.7 424.6,353.9 436.2,353.9 436.2,349.9 424.6,349.9 424.6,338.5 
	436.8,338.5 436.8,334.5 420.1,334.5 "/>
<path d="M442.4,369.4c1.9,1,4.4,1.6,7.1,1.6c6,0,8.4-3.6,8.4-8.2c0-3.3-2-5.4-5.2-6.7l-1.5-0.6c-2.9-1.1-4.4-2.3-4.4-4.4
	s1.5-3.6,4.3-3.6c1.9,0,3.8,0.5,5.1,1.1l0.2-3.7c-1.5-0.6-3.4-0.9-5.5-0.9c-5.1,0-8.4,3.3-8.4,7.6c0,3.4,1.4,5.1,5.1,6.8l2.9,1.3
	c2.4,1.1,3.3,2.3,3.3,4.1c0,2-1.7,3.7-5,3.7c-2.2,0-4.2-0.8-6.2-2L442.4,369.4L442.4,369.4z"/>
<path class="st0" d="M467.4,357.4c0-6.6,1.8-10,5.7-10c3.9,0,5.7,3.4,5.7,10s-1.8,10-5.7,10C469.2,367.5,467.4,364,467.4,357.4
	L467.4,357.4z M463.1,381.8h4.3V367h0.1c1.7,2.8,3.7,4,6.7,4c5.4,0,9-4.4,9-13.5s-3.6-13.5-9-13.5c-3.8,0-5.7,2.2-6.9,4.2h-0.1
	l-0.2-3.9h-4.2c0.1,1.6,0.2,3.3,0.2,4.9v32.6H463.1z"/>
<path class="st0" d="M490.3,350.1c1.5-1.7,4-2.7,6.7-2.7c1.8,0,3.5,0.5,4.4,1.7c0.8,1.1,1,2.3,1,4.2v1.2h-2.5
	c-9,0-12.3,3.8-12.3,8.9s3.2,7.6,7.5,7.6c4,0,6.2-1.9,7.3-3.9h0.1l0.3,3.6h3.9c-0.1-0.9-0.2-2.5-0.2-4V353c0-3.7-1.1-5.3-2.3-6.5
	c-0.8-0.8-3.1-2.5-7-2.5c-2.6,0-5.2,0.8-7.4,2.2L490.3,350.1L490.3,350.1z M502.4,361c0,3.6-2.4,6.7-6.1,6.7c-3,0-4.4-1.8-4.4-4.6
	c0-3,2.4-5.5,7.5-5.5c1.2,0,2.3,0,3,0.1V361L502.4,361z"/>
<path class="st0" d="M527.4,333.9c-0.3,1.4-0.8,2.2-1.7,2.2c-0.4,0-0.8-0.2-1.8-0.7c-2.1-1-3-1.3-3.9-1.3c-2.9,0-4.5,2-4.9,5.5h2.7
	c0.2-1.7,1.1-2.2,2-2.2c0.5,0,0.8,0.1,2.4,0.9c1.9,0.9,2.7,1.1,3.5,1.1c2.5,0,3.8-2.1,4.4-5.5H527.4L527.4,333.9z M513.3,370.6h4.3
	v-15.9c0-4.8,2.2-7.1,5.5-7.1c2.8,0,4.3,1.8,4.3,6v17h4.3v-18.3c0-5.8-3.1-8.4-7.6-8.4c-3,0-5.2,1.3-6.6,4.3h-0.1l-0.2-3.9H513
	c0.1,1.9,0.2,3.8,0.2,5.7L513.3,370.6L513.3,370.6z"/>
<path class="st0" d="M542,357.4c0-6.6,1.9-10,6-10s6,3.4,6,10s-1.9,10-6,10C543.9,367.5,542,364,542,357.4L542,357.4z M537.5,357.4
	c0,8.3,3.6,13.5,10.5,13.5s10.5-5.3,10.5-13.5c0-8.3-3.6-13.5-10.5-13.5S537.5,349.2,537.5,357.4L537.5,357.4z"/>
<polygon points="564.6,370.6 568.9,370.6 568.9,331.8 564.6,331.8 "/>
<path class="st0" d="M577.8,350.1c1.5-1.7,4-2.7,6.7-2.7c1.8,0,3.5,0.5,4.4,1.7c0.8,1.1,1,2.3,1,4.2v1.2h-2.5
	c-9,0-12.3,3.8-12.3,8.9s3.2,7.6,7.5,7.6c4,0,6.2-1.9,7.3-3.9h0.1l0.3,3.6h3.9c-0.1-0.9-0.2-2.5-0.2-4V353c0-3.7-1.1-5.3-2.3-6.5
	c-0.8-0.8-3.1-2.5-7-2.5c-2.6,0-5.2,0.8-7.4,2.2L577.8,350.1L577.8,350.1z M589.8,361c0,3.6-2.4,6.7-6.1,6.7c-3,0-4.4-1.8-4.4-4.6
	c0-3,2.4-5.5,7.5-5.5c1.2,0,2.3,0,3,0.1V361L589.8,361z"/>
<path class="st0" d="M641.3,357.4c0,6.6-1.8,10-5.7,10s-5.7-3.4-5.7-10s1.8-10,5.7-10S641.3,350.8,641.3,357.4L641.3,357.4z
	 M645.6,331.8h-4.3v16h-0.1c-1.7-2.8-3.7-4-6.7-4c-5.4,0-9,4.4-9,13.5s3.6,13.5,9,13.5c3.8,0,5.7-2.2,6.9-4.2h0.1l0.2,3.9h4.2
	c-0.1-1.6-0.2-3.3-0.2-4.9v-33.8H645.6z"/>
<path class="st0" d="M670.2,358.7v-2.3c0-7.8-3.3-12.5-9.2-12.5c-6.5,0-10.1,5.3-10.1,13.5c0,8.3,3.6,13.5,10.5,13.5
	c2.6,0,5.3-0.6,7.3-1.6l-0.2-3.9c-1.5,1.1-3.8,2.2-6,2.2c-4.8,0-7.1-2.8-7.1-8.9L670.2,358.7L670.2,358.7z M655.4,355.4
	c0.1-6.2,2.6-8.2,5.3-8.2c3.4,0,5.1,2.7,5.1,8.2H655.4L655.4,355.4z"/>
<path d="M80,231c0-20.5-11.6-31.7-29.8-44.2C39,179,33.3,172.4,33.3,163.6c0-9.5,6.6-16.5,17.1-16.5c8,0,15.6,3.2,19.2,6.1l3.6-15.9
	c-4-3.2-12.7-6.5-23.2-6.5c-22.8,0-34.9,15.4-34.9,33.6c0,17.1,9.3,28.1,27.7,40.2c13.1,8.7,18.4,16.3,18.4,27.7
	c0,11.6-7.8,18.8-19.7,18.8c-11,0-21.3-4-28.5-9.9l1.9,19.4c5.5,4,15.6,7.4,27,7.4C66.5,268,80,253.7,80,231L80,231z"/>
<polygon points="176.9,265.4 176.9,249.1 131.2,249.1 131.2,206.2 170,206.2 170,190.6 131.2,190.6 131.2,149.6 171.7,149.6 
	171.7,134 114.5,134 114.5,265.4 "/>
<path d="M372.8,266.1h12.3V134h-14.5l3,104.6l-53.5-104l-0.3-0.6H308v130.8h14.4v-65.9c0-9.5,0-20.6-0.3-32.1L372.8,266.1
	L372.8,266.1z"/>
<polygon points="272,265.4 272,249.1 226.3,249.1 226.3,206.2 265.1,206.2 265.1,190.6 226.3,190.6 226.3,149.6 266.7,149.6 
	266.7,134 209.5,134 209.5,265.4 "/>
<linearGradient id="SVGID_1_" gradientUnits="userSpaceOnUse" x1="496.0686" y1="269.7" x2="858.6314" y2="269.7" gradientTransform="matrix(1 0 0 -1 0 452)">
	<stop  offset="0" style="stop-color:#B2B2B2"/>
	<stop  offset="1" style="stop-color:#FFFFFF"/>
</linearGradient>
<path class="st1" d="M637.7,294.3c-97.7-44.1-159.1-130-137.2-191.8C522.4,40.6,619.3,26.2,717,70.3s159.1,130,137.2,191.8
	C832.2,324,735.3,338.4,637.7,294.3L637.7,294.3z"/>
<linearGradient id="SVGID_00000020368907374998922830000004810019677459885448_" gradientUnits="userSpaceOnUse" x1="579.5693" y1="232.8012" x2="657.5269" y2="187.7923" gradientTransform="matrix(1 0 0 -1 0 452)">
	<stop  offset="0" style="stop-color:#FCFCFC"/>
	<stop  offset="0.1266" style="stop-color:#FCF5EF"/>
	<stop  offset="0.37" style="stop-color:#FBE3CC"/>
	<stop  offset="0.7021" style="stop-color:#F9C393"/>
	<stop  offset="1" style="stop-color:#F5A257"/>
</linearGradient>
<path style="fill:url(#SVGID_00000020368907374998922830000004810019677459885448_);" d="M576.7,224.4
	c17.3-33.5,50.1-52.9,73.2-43.4c23.1,9.6,27.8,44.5,10.5,78s-50.1,52.9-73.2,43.4C564,292.8,559.3,257.9,576.7,224.4L576.7,224.4z"
	/>
<linearGradient id="SVGID_00000083059364434718332960000000332823907716824707_" gradientUnits="userSpaceOnUse" x1="878.8685" y1="229.7648" x2="679.6373" y2="114.7386">
	<stop  offset="0" style="stop-color:#FCFCFC"/>
	<stop  offset="0.1266" style="stop-color:#FCF5EF"/>
	<stop  offset="0.37" style="stop-color:#FBE3CC"/>
	<stop  offset="0.7021" style="stop-color:#F9C393"/>
	<stop  offset="1" style="stop-color:#F5A257"/>
</linearGradient>
<path style="fill:url(#SVGID_00000083059364434718332960000000332823907716824707_);" d="M773.3,247.7
	c-64.3-10.5-113.7-52.9-110.4-94.5c3.3-41.7,58.1-66.9,122.3-56.4c64.3,10.5,113.7,52.9,110.4,94.5
	C892.3,233,837.6,258.2,773.3,247.7L773.3,247.7z"/>
<rect x="895.8" y="94.3" class="st4" width="0.2" height="155.8"/>
<linearGradient id="SVGID_00000182508760691520291260000006229708094468857473_" gradientUnits="userSpaceOnUse" x1="601.9" y1="440.8243" x2="601.9" y2="288.2757" gradientTransform="matrix(1 0 0 -1 0 452)">
	<stop  offset="0" style="stop-color:#FCFCFC"/>
	<stop  offset="9.087995e-02" style="stop-color:#F6F6F6"/>
	<stop  offset="0.2319" style="stop-color:#E6E6E6"/>
	<stop  offset="0.4055" style="stop-color:#CBCBCB"/>
	<stop  offset="0.6047" style="stop-color:#A3A3A3"/>
	<stop  offset="0.8227" style="stop-color:#6C6B6B"/>
	<stop  offset="1" style="stop-color:#2E2E2D"/>
</linearGradient>
<path style="fill:url(#SVGID_00000182508760691520291260000006229708094468857473_);" d="M558.9,115.9
	c-21.4-39.1-19.5-83.5,4.3-99.2C586.9,1,623.5,19.9,644.9,59s19.5,83.5-4.3,99.2C616.8,173.9,580.2,155,558.9,115.9L558.9,115.9z"/>
<path class="st6" d="M624.7,109.1c-0.2,9.4,1.4,9.4,5.7,17.8c4.3,8.3,17.1,12.3,17.1,12.3c22.5,6.8,26.3,21.2,39.4,26.7
	c13.1,5.5,30.6,3.7,44.1-7.9c13.5-11.6,33.2-16.4,47-7.3c13.8,9,17.5,27.1,8.2,40.5s-28.1,16.9-42,7.9c0,0-7.6-4.6-13.8-11.4
	c-6.2-6.7-18.8-14.1-22.6-15.8c-3.8-1.8-18.2-2.6-25.8,3.8c-7.6,6.5-37,20-43.1,25.2c-6.2,5.3-6.5,12.6-7.6,17.3
	c-1.2,4.7,2.9,17,2.9,17c2.8,9.8-2.8,20.1-12.4,23.2c-9.6,3.1-19.6-2.1-22.4-11.7c-2.8-9.6,2.8-19.8,12.4-22.9l-0.3,0.1
	c4.4-1.7,7.7-4.7,18.1-16.2c10.4-11.5,2.6-16.2-0.5-27.1c-3.1-10.9,3.1-26.6,2.6-44.4c-0.5-17.7-27.1-24.5-27.1-24.5
	c-11.2,0-20.3-9.7-20.3-21.6c0-12,9.1-21.6,20.3-21.6s20.3,9.7,20.3,21.6C625.2,90,624.9,99.7,624.7,109.1L624.7,109.1z"/>
</svg>
